<svg id="Layer_1" data-name="Layer 1" xmlns="http://www.w3.org/2000/svg" viewBox="0 0 28.49 24.02"><title>calendarOut</title><path id="a" d="M17.37,3H20a2.13,2.13,0,0,1,2.13,2.13h0v5.66l5.6,5.09-5.6,5.39V18.19H9" transform="translate(0.38 -0.63)" style="fill:#fff;fill-opacity:0;stroke:#bf0112;stroke-linecap:round;stroke-linejoin:round;stroke-width:0.75px"/><path id="b" d="M7,3h6.8" transform="translate(0.38 -0.63)" style="fill:#fff;fill-opacity:0;stroke:#bf0112;stroke-linecap:round;stroke-linejoin:round;stroke-width:0.75px"/><path id="c" d="M19.13,24.27h-17A2.13,2.13,0,0,1,0,22.15v-17A2.13,2.13,0,0,1,2.13,3H4.19" transform="translate(0.38 -0.63)" style="fill:#fff;fill-opacity:0;stroke:#bf0112;stroke-linecap:round;stroke-linejoin:round;stroke-width:0.75px"/><path id="d" d="M5,2A1,1,0,0,1,6,1H6.75a1,1,0,0,1,1,1V5.79a1,1,0,0,1-1,1H6a1,1,0,0,1-1-1V2Z" transform="translate(0.38 -0.63)" style="fill:#fff;fill-opacity:0;stroke:#bf0112;stroke-linecap:round;stroke-linejoin:round;stroke-width:0.75px"/><path id="e" d="M14,2a1,1,0,0,1,1-1h0.75a1,1,0,0,1,1,1V5.79a1,1,0,0,1-1,1H15a1,1,0,0,1-1-1V2Z" transform="translate(0.38 -0.63)" style="fill:#fff;fill-opacity:0;stroke:#bf0112;stroke-linecap:round;stroke-linejoin:round;stroke-width:0.75px"/><path id="f" d="M0,9H21.27" transform="translate(0.38 -0.63)" style="fill:#fff;fill-opacity:0;stroke:#bf0112;stroke-linejoin:round;stroke-width:0.75px"/></svg>