<svg id="Layer_1" data-name="Layer 1" xmlns="http://www.w3.org/2000/svg" viewBox="0 0 24.39 24.86"><title>calendarTo</title><path id="a" d="M18,4h2.63a2.12,2.12,0,0,1,2.12,2.12v5.63" transform="translate(-0.63 -0.63)" style="fill:#fff;fill-opacity:0;stroke:#bf0112;stroke-linecap:round;stroke-linejoin:round;stroke-width:0.75px"/><path id="b" d="M8,4h6.78" transform="translate(-0.63 -0.63)" style="fill:#fff;fill-opacity:0;stroke:#bf0112;stroke-linecap:round;stroke-linejoin:round;stroke-width:0.75px"/><path id="c" d="M20,25.11H3.12A2.12,2.12,0,0,1,1,23V6.12A2.12,2.12,0,0,1,3.12,4H5.17" transform="translate(-0.63 -0.63)" style="fill:#fff;fill-opacity:0;stroke:#bf0112;stroke-linecap:round;stroke-linejoin:round;stroke-width:0.75px"/><path id="d" d="M3,24.93H19.93a2.11,2.11,0,0,0,2.12-2.11V20" transform="translate(-0.63 -0.63)" style="fill:#fff;fill-opacity:0;stroke:#bf0112;stroke-linecap:round;stroke-linejoin:round;stroke-width:0.75px"/><path id="e" d="M6,2A1,1,0,0,1,7,1H7.74a1,1,0,0,1,1,1V5.76a1,1,0,0,1-1,1H7a1,1,0,0,1-1-1V2Z" transform="translate(-0.63 -0.63)" style="fill:#fff;fill-opacity:0;stroke:#bf0112;stroke-linecap:round;stroke-linejoin:round;stroke-width:0.75px"/><path id="f" d="M15,2a1,1,0,0,1,1-1h0.74a1,1,0,0,1,1,1V5.76a1,1,0,0,1-1,1H16a1,1,0,0,1-1-1V2Z" transform="translate(-0.63 -0.63)" style="fill:#fff;fill-opacity:0;stroke:#bf0112;stroke-linecap:round;stroke-linejoin:round;stroke-width:0.75px"/><path id="g" d="M1,9H22.17" transform="translate(-0.63 -0.63)" style="fill:#fff;fill-opacity:0;stroke:#bf0112;stroke-linejoin:round;stroke-width:0.75px"/><path id="h" d="M11.57,12L6,17.07l5.57,5.36V19.37H24.64" transform="translate(-0.63 -0.63)" style="fill:#fff;fill-opacity:0;stroke:#bf0112;stroke-linecap:round;stroke-linejoin:round;stroke-width:0.75px"/></svg>