<svg id="Layer_1" data-name="Layer 1" xmlns="http://www.w3.org/2000/svg" viewBox="0 0 16.45 24.8"><title>contacts-tel</title><path id="a" d="M1,6A5.13,5.13,0,0,1,2.69,2.15c0.32-.3.66-0.57,1-0.86a1.1,1.1,0,0,1,1.56.07,3.71,3.71,0,0,1,.42.46A9.74,9.74,0,0,1,7,4.2,1.59,1.59,0,0,1,6.61,6c-0.32.29-.67,0.58-1,0.84a1.26,1.26,0,0,0-.5,1.39,4.39,4.39,0,0,0,.77,1.6A14,14,0,0,0,8,12.26a4.28,4.28,0,0,0,1.38.9,1.28,1.28,0,0,0,1.45-.31c0.32-.31.64-0.62,1-0.9a1.58,1.58,0,0,1,1.85-.17,6.75,6.75,0,0,1,1.49,1.1,5.37,5.37,0,0,1,1,1.08,1.1,1.1,0,0,1-.09,1.5c-0.41.39-.84,0.77-1.29,1.12a5,5,0,0,1-3.48.94,7.25,7.25,0,0,1-3.15-1.1,15.44,15.44,0,0,1-3.48-3,19.65,19.65,0,0,1-2.21-2.94,9.85,9.85,0,0,1-1.26-3C1.12,7,1.07,6.54,1,6H1Z" transform="translate(-0.62 -0.62)" style="fill:#fff;fill-opacity:0;stroke:#bf0112;stroke-linecap:round;stroke-linejoin:round;stroke-width:0.75px"/><path id="b" d="M14.84,17s3.13,2.57,1.28,4.21c-2.53,2.23-6-1.82-7.61.14C7.14,22.93,9,25.05,9,25.05" transform="translate(-0.62 -0.62)" style="fill:#fff;fill-opacity:0;stroke:#bf0112;stroke-linecap:round;stroke-linejoin:round;stroke-width:0.75px"/></svg>