<svg id="Layer_1" data-name="Layer 1" xmlns="http://www.w3.org/2000/svg" viewBox="0 0 27.05 18.91"><title>cost</title><path id="a" d="M27.25,7.29V1H21.17a0.67,0.67,0,0,1-.59.36A0.66,0.66,0,0,1,20,1H1V7.29a2.8,2.8,0,0,1,0,5.58v6.29H20a0.67,0.67,0,0,1,.59-0.36,0.66,0.66,0,0,1,.59.36H27.3V12.87a2.79,2.79,0,1,1,0-5.58h0Z" transform="translate(-0.63 -0.63)" style="fill:#fff;fill-opacity:0;stroke:#bf0112;stroke-linecap:round;stroke-linejoin:round;stroke-width:0.75px"/><path id="b" d="M20,1V18.46" transform="translate(-0.63 -0.63)" style="fill:#fff;fill-opacity:0;stroke:#bf0112;stroke-linecap:round;stroke-linejoin:round;stroke-width:0.75px;stroke-dasharray:2"/><path id="c" d="M7,7h9.26" transform="translate(-0.63 -0.63)" style="fill:#fff;fill-opacity:0;stroke:#bf0112;stroke-linecap:round;stroke-linejoin:round;stroke-width:0.75px"/><path id="d" d="M7,10h9.26" transform="translate(-0.63 -0.63)" style="fill:#fff;fill-opacity:0;stroke:#bf0112;stroke-linecap:round;stroke-linejoin:round;stroke-width:0.75px"/><path id="e" d="M7,14h9.26" transform="translate(-0.63 -0.63)" style="fill:#fff;fill-opacity:0;stroke:#bf0112;stroke-linecap:round;stroke-linejoin:round;stroke-width:0.75px"/></svg>