<svg id="Layer_1" data-name="Layer 1" xmlns="http://www.w3.org/2000/svg" viewBox="0 0 26 26.01"><title>direction-checkbox</title><path id="a" d="M26,1.63V21.94a1.62,1.62,0,0,1-1.11,1.54l-7.31,2.44a1.67,1.67,0,0,1-1,0L9.34,23.64,2.11,25.92A1.6,1.6,0,0,1,0,24.38V4.47A1.63,1.63,0,0,1,1.06,2.94L8.78,0.1A1.54,1.54,0,0,1,9.34,0a1.82,1.82,0,0,1,.52.08l6.81,2.27,7.22-2.27A1.6,1.6,0,0,1,26,1.63h0Zm-5.85.48C20,2.39,19.85,2.64,19.73,3A6,6,0,0,0,20,4.24c0.24,0.37.64,0.21,0.81,0.63a1.48,1.48,0,0,1-.65,1.67,0.7,0.7,0,0,1-.45.16c-0.26,0-.52-0.13-0.84-0.16a5.8,5.8,0,0,1-1.45-.37V8.69a2.62,2.62,0,0,1,.48.15c0.54,0.22.75,0.65,1.29,0.84a2,2,0,0,0,.56.09c0.56,0,1-.28,1.71-0.31,0.41,0,.75-0.2,1.08-0.2a0.78,0.78,0,0,1,.53.2c0.46,0.41.22,1.19,0.64,1.67a1.69,1.69,0,0,0,1.13.63l0.3,0.06V1.63A0.81,0.81,0,0,0,24.37.81a1,1,0,0,0-.24,0ZM19,2.74a1.94,1.94,0,0,1,.12-0.29L17.47,3V5.31l0.32,0.11A4.3,4.3,0,0,0,19,5.73a2.88,2.88,0,0,1,.53.11l0.21,0a0.9,0.9,0,0,0,.38-0.61,1.6,1.6,0,0,1-.76-0.59,2.21,2.21,0,0,1-.31-1A1.5,1.5,0,0,0,19,3.28a0.77,0.77,0,0,1,0-.54h0Zm-2.3,5.88V5.91a9.08,9.08,0,0,0-2.23-.65l-0.35,0c-0.65.09-1.23-.06-1.61,0.62a2.08,2.08,0,0,0,0,2.1,1.66,1.66,0,0,0,1.29.62,2.4,2.4,0,0,0,.62.08c0.38,0,.73-0.08,1.18-0.08h1.1Zm-3.89,8.09c0.16-.54.64-0.52,0.81-1a2.19,2.19,0,0,0,0-1.45A1.94,1.94,0,0,0,12.13,13a1,1,0,0,0-.37-0.07c-0.38,0-.73.21-1.1,0.21A0.88,0.88,0,0,1,10.19,13a3.9,3.9,0,0,1-.85-1.1v5.27a7.26,7.26,0,0,0,1,.84,2.57,2.57,0,0,0,1.13.63h0.24a1,1,0,0,0,1-.64,10.43,10.43,0,0,0,0-1.25h0Zm-12-8.93V21.57l0.3,0A0.94,0.94,0,0,0,1.8,21.3c0.49-.46.22-1.19,0.49-1.88s0.44-1.6,1.13-1.88a1.18,1.18,0,0,1,.43-0.09,2.42,2.42,0,0,1,.54.09c0.55,0.14.73,0.71,1.29,0.84a3.81,3.81,0,0,0,.77.14,0.79,0.79,0,0,0,.68-0.35c0.28-.36,0-0.92.32-1.25A0.68,0.68,0,0,1,8,16.69l0.42,0H8.53V11a8.72,8.72,0,0,0-1.4-1.13C6.35,9.3,5.77,9.39,5,8.77A7.63,7.63,0,0,0,3.9,7.52,1.08,1.08,0,0,0,3.4,7.4c-0.46,0-.87.3-1.43,0.33s-0.8,0-1.16,0h0Zm0-3.31V7l0.78,0,0.33,0a2.05,2.05,0,0,0,.54-0.14A2.9,2.9,0,0,1,3.4,6.59a2,2,0,0,1,.86.2,2.42,2.42,0,0,1,1,1,2.45,2.45,0,0,0,.33.41,2.54,2.54,0,0,0,.88.45,4.68,4.68,0,0,1,1.15.55,9.78,9.78,0,0,1,1,.7V1.06L1.34,3.71a0.81,0.81,0,0,0-.53.76h0ZM8.53,23.05v-5.5a0.32,0.32,0,0,0-.14,0H8.09v0.08a1.77,1.77,0,0,1-.31,1.08,1.63,1.63,0,0,1-1.33.68,3.35,3.35,0,0,1-.81-0.13l-0.15,0a2.21,2.21,0,0,1-1-.62,1.07,1.07,0,0,0-.26-0.22,2.53,2.53,0,0,0-.35-0.06,0.33,0.33,0,0,0-.13,0,1.43,1.43,0,0,0-.48.88c-0.06.18-.12,0.36-0.2,0.54a2.24,2.24,0,0,0-.09.61,2.18,2.18,0,0,1-.58,1.56,1.77,1.77,0,0,1-1.27.52,2.85,2.85,0,0,1-.29,0v2a0.83,0.83,0,0,0,.33.65,0.84,0.84,0,0,0,.49.16,1,1,0,0,0,.24,0Zm8.13,2.05V9.43h-1.1a5.1,5.1,0,0,0-.55,0,6.07,6.07,0,0,1-.63,0,3,3,0,0,1-.84-0.11l-0.29-.06a2,2,0,0,1-1.48-.93,2.89,2.89,0,0,1,0-2.9,2,2,0,0,1,1.85-1l0.36,0,0.46,0a4,4,0,0,1,1.63.4c0.2,0.07.39,0.15,0.6,0.21V3.21l-0.25-.09L9.6,0.85a1.09,1.09,0,0,0-.26,0v9.81l0.5,0.54a3.7,3.7,0,0,1,.46.68,1.27,1.27,0,0,0,.33.43h0A1.81,1.81,0,0,0,11,12.21a2.47,2.47,0,0,1,.79-0.15,1.8,1.8,0,0,1,.68.14l0.14,0.06A2.55,2.55,0,0,1,14.35,14a2.93,2.93,0,0,1,0,1.94,1.74,1.74,0,0,1-.67.9l-0.12.11v0a0.79,0.79,0,0,0,0,.23,1.84,1.84,0,0,1,0,1.1,1.79,1.79,0,0,1-1.81,1.14H11.44a2,2,0,0,1-1.21-.53,2.64,2.64,0,0,0-.29-0.21,4,4,0,0,1-.6-0.44v4.57l0.25,0.08Zm8.53-3.16V12.63l-0.42-.06h0a2.47,2.47,0,0,1-1.58-.89,2.34,2.34,0,0,1-.49-1.24,2,2,0,0,0-.08-0.36l-0.28.07a3.5,3.5,0,0,1-.76.13,4.37,4.37,0,0,0-.72.14,3.74,3.74,0,0,1-1,.17,2.6,2.6,0,0,1-1.75-.71,1.76,1.76,0,0,0-.41-0.28l-0.17-.06V25.1l7.16-2.39a0.82,0.82,0,0,0,.56-0.77h0Z" transform="translate(0 0)" style="fill:#bf0112"/><path id="b" d="M23.9,18.14a2.18,2.18,0,0,1-.77,2.24,2.77,2.77,0,0,1-1.59.47,1.66,1.66,0,0,1-1.32-.48,0.91,0.91,0,0,1-.2-0.8,1.16,1.16,0,0,1,.85-0.84,0.63,0.63,0,0,0,.4-0.26,1.24,1.24,0,0,0-.46-0.7,1.36,1.36,0,0,1-.55-1,0.73,0.73,0,0,1,.35-0.52A1.26,1.26,0,0,1,21.34,16a3,3,0,0,1,.82.16,2.39,2.39,0,0,1,1.74,2h0Zm-0.8.14A1.57,1.57,0,0,0,21.94,17a1.12,1.12,0,0,0-.84-0.08,3.06,3.06,0,0,0,.3.34A1.55,1.55,0,0,1,22,18.76a1.34,1.34,0,0,1-.86.73c-0.28.11-.34,0.15-0.35,0.23a0.14,0.14,0,0,0,0,.13,1,1,0,0,0,.7.19,1.93,1.93,0,0,0,1.1-.31,1.36,1.36,0,0,0,.46-1.45h0Z" transform="translate(0 0)" style="fill:#bf0112"/></svg>