<svg id="Layer_1" data-name="Layer 1" xmlns="http://www.w3.org/2000/svg" viewBox="0 0 23.73 27.37"><title>direction</title><path id="a" d="M15,14a3,3,0,1,1,3,3A3,3,0,0,1,15,14Z" transform="translate(-0.63 -0.63)" style="fill:#fff;fill-opacity:0;stroke:#bf0112;stroke-linecap:round;stroke-linejoin:round;stroke-width:0.75px"/><path id="b" d="M24,13.5a6.49,6.49,0,1,0-11.49,4.12l5,7.9,5-7.9A6.5,6.5,0,0,0,24,13.5h0Z" transform="translate(-0.63 -0.63)" style="fill:#fff;fill-opacity:0;stroke:#bf0112;stroke-linecap:round;stroke-linejoin:round;stroke-width:0.75px"/><path id="c" d="M6,6.76A2.77,2.77,0,1,1,8.77,9.53,2.76,2.76,0,0,1,6,6.76Z" transform="translate(-0.63 -0.63)" style="fill:#fff;fill-opacity:0;stroke:#bf0112;stroke-linecap:round;stroke-linejoin:round;stroke-width:0.75px"/><path id="d" d="M15,7.7a6,6,0,1,0-10.67,3L9,18.12l2.52-4" transform="translate(-0.63 -0.63)" style="fill:#fff;fill-opacity:0;stroke:#bf0112;stroke-linecap:round;stroke-linejoin:round;stroke-width:0.75px"/><path id="e" d="M8.9,20C4.51,20,1,21.71,1,23.82s3.55,3.81,7.9,3.81h8.72" transform="translate(-0.63 -0.63)" style="fill:#fff;fill-opacity:0;stroke:#bf0112;stroke-linecap:round;stroke-linejoin:round;stroke-width:0.75px;stroke-dasharray:2"/></svg>