<svg id="Layer_1" data-name="Layer 1" xmlns="http://www.w3.org/2000/svg" viewBox="0 0 26.47 22.88"><title>food</title><g id="Page-1"><g id="LINK-1-OFFER"><g id="Group-25-Copy"><g id="Group-24"><g id="GRAND-VOYAGE-food-icons-03"><path id="Shape" d="M24.33,23H2.58a0.5,0.5,0,1,1,0-1H24.33A0.5,0.5,0,0,1,24.33,23Z" transform="translate(-0.23 -0.12)" style="fill:#bf0112"/><path id="Shape-2" data-name="Shape" d="M26.2,21H0.73a0.5,0.5,0,0,1,0-1H26.2A0.5,0.5,0,1,1,26.2,21Z" transform="translate(-0.23 -0.12)" style="fill:#bf0112"/><path id="Shape-3" data-name="Shape" d="M25.37,17.07H1.53v-0.5a11.92,11.92,0,0,1,23.83,0v0.5Zm-22.82-1h21.8a10.91,10.91,0,0,0-21.81,0h0Z" transform="translate(-0.23 -0.12)" style="fill:#bf0112"/><path id="Shape-4" data-name="Shape" d="M13.45,4.12a2,2,0,1,1,2-2A2,2,0,0,1,13.45,4.12Zm0-3a1,1,0,1,0,1,1,1,1,0,0,0-1-1v0Z" transform="translate(-0.23 -0.12)" style="fill:#bf0112"/></g></g></g></g></g></svg>