<svg id="Layer_1" data-name="Layer 1" xmlns="http://www.w3.org/2000/svg" viewBox="0 0 27 27"><title>form-tour-avia</title><path id="a" d="M27,11.81v2.53a0.85,0.85,0,0,1-.84.85H16.27l-0.63,5.69L18.25,23a0.83,0.83,0,0,1,.31.66v0.84a0.85,0.85,0,0,1-.84.84H15.13A1.81,1.81,0,0,1,13.5,27a1.8,1.8,0,0,1-1.63-1.69H9.28a0.85,0.85,0,0,1-.84-0.84V23.63A0.83,0.83,0,0,1,8.75,23l2.61-2.09-0.63-5.69H0.84A0.85,0.85,0,0,1,0,14.34V12.23a0.84,0.84,0,0,1,.51-0.77l9.35-4L9.71,6c0-.35-0.23-3.29,1.29-4.94A3.31,3.31,0,0,1,13.5,0,3.31,3.31,0,0,1,16,1.06C17.52,2.71,17.32,5.65,17.29,6L17.15,7.3,26.47,11a0.85,0.85,0,0,1,.53.78h0Zm-26.16.85h9.61L10,8.28l-9.12,4v0.43Zm9.7,0.84H0.84v0.84h9.8Zm1.22,11-0.29-2.6L9.28,23.63v0.84h2.48Zm3.77-2.6-0.29,2.6h2.48V23.63Zm0.92-16c0-.22.2-2.89-1.07-4.27A2.45,2.45,0,0,0,13.5.84a2.45,2.45,0,0,0-1.88.79C10.34,3,10.53,5.7,10.55,5.92l2.1,18.95c0,0.46.27,1.29,0.85,1.29s0.8-.82.84-1.25Zm9.71,7.6h-9.7l-0.1.84h9.8V13.5Zm0-1.69L17.05,8.17l-0.5,4.49h9.61V11.81Z" transform="translate(0 0)" style="fill:#bf0112"/></svg>