<svg id="Layer_1" data-name="Layer 1" xmlns="http://www.w3.org/2000/svg" viewBox="0 0 19.9 26.53"><title>form-tour-mark</title><path id="a" d="M19.9,11a11.15,11.15,0,0,1-2.19,6.22l-7.09,10a0.8,0.8,0,0,1-.67.35,0.84,0.84,0,0,1-.68-0.35l-7.09-10A11.75,11.75,0,0,1,0,10.95a9.95,9.95,0,0,1,19.9,0h0Zm-0.83,0A9.12,9.12,0,0,0,.83,11c0,2.4,1.44,4.75,2.45,6.22l6.67,9.11,6.66-9.11h0c0.91-1.34,2.45-3.82,2.45-6.22h0Z" transform="translate(0 -1)" style="fill:#bf0112"/><path id="b" d="M14.29,10.14A4.15,4.15,0,1,1,10.14,6,4.15,4.15,0,0,1,14.29,10.14Zm-0.83,0a3.31,3.31,0,1,0-6.62,0h0A3.31,3.31,0,0,0,13.46,10.14Z" transform="translate(0 -1)" style="fill:#bf0112"/><path id="c" d="M15.61,10.8A5.81,5.81,0,1,1,9.8,5,5.81,5.81,0,0,1,15.61,10.8Zm-0.83,0a5,5,0,0,0-10,0h0A5,5,0,0,0,14.78,10.8Z" transform="translate(0 -1)" style="fill:#bf0112"/></svg>