<svg id="Layer_1" data-name="Layer 1" xmlns="http://www.w3.org/2000/svg" viewBox="0 0 24.49 24.49"><title>form-tour-earth</title><path id="a" d="M24.49,12.24A12.24,12.24,0,0,1,0,12.25H0A12.24,12.24,0,1,1,24.49,12.24ZM10.09,2.89a1.42,1.42,0,0,0-.3.2,2.22,2.22,0,0,1-.27.19,0.38,0.38,0,0,0-.2.2L9.42,3.6a1,1,0,0,1,.28.7,1.34,1.34,0,0,1-.4.9A1,1,0,0,1,9,5.4L9,5.44a1.07,1.07,0,0,0-.19.39,2.13,2.13,0,0,1,.1.52,5.61,5.61,0,0,1,.8.43H9.88l0.24,0c0.17,0,.31,0,0.51,0h0.11c0.11,0,.22,0,0.38.07a1.3,1.3,0,0,1,.46.26,0.39,0.39,0,0,0,.17.1,0.29,0.29,0,0,0,.17-0.08,1.14,1.14,0,0,1,.4-0.2A2.22,2.22,0,0,1,13,7a1.52,1.52,0,0,0,.43,0,1.32,1.32,0,0,1,.5-0.16h0.15a1.36,1.36,0,0,1,.35.09,0.34,0.34,0,0,0,.14,0,2.88,2.88,0,0,0,.54-0.35,1.45,1.45,0,0,1,.41-0.25l0.17-.09,0.18-.14a1.86,1.86,0,0,1,.55-0.33,1.58,1.58,0,0,1,1.06-.08,1.55,1.55,0,0,1,.78.62l0.12,0.15L18.51,6.6a0.51,0.51,0,0,0,.15.15,0.4,0.4,0,0,0,.24,0,1.37,1.37,0,0,1,.52,0l0.12,0a1.75,1.75,0,0,1,.36.07l0.24,0.1a1.67,1.67,0,0,1,.65.64,2.17,2.17,0,0,1,.33.89l0,0.14a3.4,3.4,0,0,1,.07.74V9.5l0,0.23a1.84,1.84,0,0,1,0,.69,1.46,1.46,0,0,1-.29.56,0.7,0.7,0,0,0-.15.26l0,0.08a0.61,0.61,0,0,0,0,.4,2.38,2.38,0,0,1,0,.49A0.63,0.63,0,0,1,21.16,12a0.53,0.53,0,0,1,.44.26,0.64,0.64,0,0,1,.09.46l0.1,0V12.62A1,1,0,0,1,21.92,12a0.82,0.82,0,0,1,.56-0.38,0.4,0.4,0,0,0,.16-0.07,0.56,0.56,0,0,0,.11-0.18A1.22,1.22,0,0,1,23,11a1.24,1.24,0,0,1,.36-0.24,0.23,0.23,0,0,0,.11-0.07V10.58a0.82,0.82,0,0,1,.07-0.34,11.47,11.47,0,0,0-6.27-8.32,0.94,0.94,0,0,1-.54.07,0.73,0.73,0,0,1-.62-0.55q-0.34-.13-0.7-0.23a0.53,0.53,0,0,1-.24.11,1.25,1.25,0,0,1-.83-0.09A1.1,1.1,0,0,1,13.89.88a12.82,12.82,0,0,0-3,0,1,1,0,0,1,.2.72,1.32,1.32,0,0,1-.39.81l-0.07.07a1.74,1.74,0,0,1-.55.44h0ZM1.8,16.74a1.73,1.73,0,0,1,1,.41L2.9,17.24a7.83,7.83,0,0,1,.68.55,5.4,5.4,0,0,0,1.43,1,1.26,1.26,0,0,0,.54-1,4,4,0,0,1,.24-0.65,1.07,1.07,0,0,1,1-.57h0a0.9,0.9,0,0,1,.68.41,0.86,0.86,0,0,0,.15.17,2.31,2.31,0,0,0,.42.2,2.26,2.26,0,0,1,.61.32,2.1,2.1,0,0,1,.45.44,1.14,1.14,0,0,0,.31.31l0.19,0.14a0.59,0.59,0,0,0,.43.18c0.08,0,.12,0,0.22-0.37a2.53,2.53,0,0,1,.28-0.61,2.1,2.1,0,0,0,.15-0.3,1.11,1.11,0,0,1,.68-0.74,1,1,0,0,1,.29,0,1.24,1.24,0,0,1,1,.93,2.81,2.81,0,0,0,.28.52,4,4,0,0,1,.27.42,1.24,1.24,0,0,0,.3.41,0.92,0.92,0,0,0,.59.2,3.43,3.43,0,0,0,.78-0.13A5.53,5.53,0,0,1,15.63,19l0.38,0a1.77,1.77,0,0,0,.76-0.18L17,18.63c0.49-.24.63-0.34,0.59-0.47s-0.11-.24-0.5-0.37a0.56,0.56,0,0,0-.36.1,1.51,1.51,0,0,1-.66.19l-0.23,0a2,2,0,0,1-1.06-.71l-0.15-.16a1.75,1.75,0,0,1-.32-0.51,0.61,0.61,0,0,0-.23-0.31,0.52,0.52,0,0,0-.4,0,1.36,1.36,0,0,1-1,0,1.22,1.22,0,0,1-.55-0.7,0.46,0.46,0,0,0-.2-0.31,1.21,1.21,0,0,0-1,.17l-0.19.09a1.18,1.18,0,0,0-.42.35,1.85,1.85,0,0,1-.76.55,3.86,3.86,0,0,1-1.29.28,1.2,1.2,0,0,1-1.22-.74,1.28,1.28,0,0,1,0-1.27,0.78,0.78,0,0,1,.66-0.33,1.86,1.86,0,0,1,.34,0,0.92,0.92,0,0,0,.36,0,3.42,3.42,0,0,0,.7-0.29L9.53,14a2,2,0,0,1,.56-0.16l0.13,0-0.18,0-0.35-.1H9.56a2.64,2.64,0,0,0-.52.08,1,1,0,0,1-1-.11,0.58,0.58,0,0,1-.14-0.49,0.84,0.84,0,0,1,.83-0.65l0.19,0a0.51,0.51,0,0,0-.32-0.33,0.06,0.06,0,0,0,0,0,1,1,0,0,0-.24.07,1.41,1.41,0,0,1-.72.12,2.26,2.26,0,0,1-1.11-.52,3.58,3.58,0,0,0-.43-0.29,4.05,4.05,0,0,1-.51-0.35,1.85,1.85,0,0,0-.67-0.38,2.82,2.82,0,0,0-1.23,0l-0.14,0-0.29,0a1,1,0,0,0-.57.15,0.66,0.66,0,0,0-.22.45,1.92,1.92,0,0,1-.34.76,2.62,2.62,0,0,1-.53.46,1.48,1.48,0,0,0-.36.3,3.26,3.26,0,0,0-.37.54,11.46,11.46,0,0,0,.86,3.25H1.8Zm21.92-4.5,0-.84a0.29,0.29,0,0,0-.13.08,0.56,0.56,0,0,0-.11.19,1.36,1.36,0,0,1-.27.41,1,1,0,0,1-.49.25,0.73,0.73,0,0,0-.12,0,0.3,0.3,0,0,0,0,.2v0.3a1,1,0,0,1-1,.63,0.62,0.62,0,0,1-.61-0.37v0a1,1,0,0,1-.29.21l-0.08,0H20.44a0.44,0.44,0,0,1-.31-0.13A1.24,1.24,0,0,1,20,12.34a2.91,2.91,0,0,0,0-.44A1.48,1.48,0,0,1,20,11.1L20,11a1.73,1.73,0,0,1,.28-0.53,0.6,0.6,0,0,0,.16-0.27,1,1,0,0,0,0-.43l0-.28V9.32a3.23,3.23,0,0,0-.06-0.61l0-.14A1.58,1.58,0,0,0,20.15,8a0.94,0.94,0,0,0-.37-0.39l-0.11,0-0.23,0-0.13,0a0.8,0.8,0,0,0-.26,0,1.2,1.2,0,0,1-.76-0.07,1.31,1.31,0,0,1-.38-0.35L17.82,7l-0.18-.23a0.49,0.49,0,0,0-.14-0.17,0.63,0.63,0,0,0-.26-0.16,0.79,0.79,0,0,0-.56.07,1.17,1.17,0,0,0-.31.2,2.1,2.1,0,0,1-.51.33,0.74,0.74,0,0,0-.23.14,2.52,2.52,0,0,1-1.06.53,1.1,1.1,0,0,1-.44-0.1L14,7.54h0l-0.1,0a0.81,0.81,0,0,1-.25.09,2,2,0,0,1-.65,0,1.26,1.26,0,0,0-.44,0,0.43,0.43,0,0,0-.18.09,1,1,0,0,1-.59.22,1,1,0,0,1-.65-0.27l-0.19-.12c-0.11,0-.18,0-0.28,0H10.52l-0.46,0-0.22,0a0.67,0.67,0,0,1-.46-0.06L9.27,7.41A2.8,2.8,0,0,0,8.93,7.2,2.18,2.18,0,0,0,8.41,7L8.1,6.93l0-.47,0-.31,0,0a0.77,0.77,0,0,1,0-.61A1.86,1.86,0,0,1,8.45,4.9l0,0,0.14-.1,0.1-.08a0.62,0.62,0,0,0,.2-0.44,0.77,0.77,0,0,0-.11-0.15A0.85,0.85,0,0,1,8.58,3.3,1,1,0,0,1,9.1,2.65l0.19-.14a2.47,2.47,0,0,1,.42-0.29A1,1,0,0,0,10.06,2l0.07-.09a0.57,0.57,0,0,0,.21-0.36,0.48,0.48,0,0,0-.16-0.35L10.06,1A11.46,11.46,0,0,0,.77,12.24v0.07A2.08,2.08,0,0,1,1.13,12a1.84,1.84,0,0,0,.37-0.31,1.41,1.41,0,0,0,.19-0.47,1.37,1.37,0,0,1,.53-0.89,1.71,1.71,0,0,1,.93-0.28l0.25,0,0.14,0a3.52,3.52,0,0,1,1.55,0,2.66,2.66,0,0,1,.92.5l0.43,0.3a3.76,3.76,0,0,1,.51.34,1.66,1.66,0,0,0,.76.38A0.82,0.82,0,0,0,8,11.5a1.32,1.32,0,0,1,.51-0.12,0.88,0.88,0,0,1,.42.11,1.16,1.16,0,0,1,.71,1.13,0.67,0.67,0,0,1-.1.31A1,1,0,0,1,10,13l0.26,0.07a0.93,0.93,0,0,1,.88.77,0.82,0.82,0,0,1-.87.8,1.57,1.57,0,0,0-.36.09L9.5,14.9a3.92,3.92,0,0,1-.86.35,1.73,1.73,0,0,1-.68,0,0.76,0.76,0,0,0-.21,0c-0.11.11-.12,0.22,0,0.54a0.45,0.45,0,0,0,.51.26,3.17,3.17,0,0,0,1-.23,1.07,1.07,0,0,0,.44-0.34,2,2,0,0,1,.68-0.54l0.18-.08a2.5,2.5,0,0,1,1-.31,1.47,1.47,0,0,1,.61.14,1.2,1.2,0,0,1,.58.71,0.62,0.62,0,0,0,.2.32,0.61,0.61,0,0,0,.41,0,1.32,1.32,0,0,1,1,0,1.34,1.34,0,0,1,.53.64,0.81,0.81,0,0,0,.19.31l0.15,0.17a1.31,1.31,0,0,0,.68.49,0.61,0.61,0,0,0,.37-0.11A1.46,1.46,0,0,1,17,17a1,1,0,0,1,.3,0,1.35,1.35,0,0,1,1,.92,1.26,1.26,0,0,1-1,1.34l-0.22.1a2.45,2.45,0,0,1-1,.26,5.39,5.39,0,0,0-1,.18,4.67,4.67,0,0,1-1,.15,1.73,1.73,0,0,1-1.56-1c-0.07-.11-0.12-0.22-0.2-0.33A3.06,3.06,0,0,1,11.94,18a1.39,1.39,0,0,0-.3-0.5h0a0.45,0.45,0,0,0-.22.32,1.75,1.75,0,0,1-.22.43,1.77,1.77,0,0,0-.18.42,1.09,1.09,0,0,1-.85.89,1.27,1.27,0,0,1-1-.33L9,19.15a2.15,2.15,0,0,1-.48-0.47,1.07,1.07,0,0,0-.3-0.3,1.43,1.43,0,0,0-.44-0.23,2.91,2.91,0,0,1-.56-0.28,1.15,1.15,0,0,1-.33-0.33l-0.11-.11a0.28,0.28,0,0,0-.29.19,2.45,2.45,0,0,0-.18.48c-0.18.61-.46,1.55-1.32,1.49a4.26,4.26,0,0,1-1.89-1.22l-0.59-.5-0.14-.09L2.1,17.62a11.48,11.48,0,0,0,21.62-5.38h0Z" transform="translate(0 0)" style="fill:#bf0112"/><path id="b" d="M18.32,11.58c0.49,0.72-.16,1.35-0.6,1.76l-0.17.17a2.86,2.86,0,0,1-1.63.82l-0.38.11a2.49,2.49,0,0,1-.78.17A0.71,0.71,0,0,1,14,14,1,1,0,0,1,14.61,13a2.19,2.19,0,0,0,.25-0.2,2.75,2.75,0,0,1,.62-0.41A2.19,2.19,0,0,0,15.94,12a1.18,1.18,0,0,0,.2-0.31,1.06,1.06,0,0,1,.68-0.68,1.3,1.3,0,0,1,1.5.52h0ZM17.69,12a0.52,0.52,0,0,0-.45-0.24,0.56,0.56,0,0,0-.21,0,0.36,0.36,0,0,0-.2.27,1.68,1.68,0,0,1-.37.54,2.71,2.71,0,0,1-.62.42,2,2,0,0,0-.46.31,3.19,3.19,0,0,1-.33.25,0.73,0.73,0,0,0-.28.26,2,2,0,0,0,.54-0.14,4.45,4.45,0,0,1,.45-0.13A2.13,2.13,0,0,0,17,13l0.18-.17c0.49-.46.6-0.64,0.5-0.79h0Z" transform="translate(0 0)" style="fill:#bf0112"/><path id="c" d="M12.83,20.56a1.34,1.34,0,0,1,0,1.77,1.41,1.41,0,0,1-1,.51,0.83,0.83,0,0,1-.58-0.23,0.91,0.91,0,0,1-.17-1l0-.24V21.08a0.9,0.9,0,0,1,.52-1,0.84,0.84,0,0,1,.27,0,1.23,1.23,0,0,1,.92.56h0Zm-0.6.47a0.43,0.43,0,0,0-.34-0.26,1.3,1.3,0,0,0,0,.28,3,3,0,0,1,0,.42,1.66,1.66,0,0,1-.07.35,0.84,0.84,0,0,0,0,.23,0.06,0.06,0,0,0,0,0,0.71,0.71,0,0,0,.42-0.26,0.59,0.59,0,0,0,0-.79h0Z" transform="translate(0 0)" style="fill:#bf0112"/></svg>