<svg id="Layer_1" data-name="Layer 1" xmlns="http://www.w3.org/2000/svg" viewBox="0 0 17.15 26.35"><title>header-order</title><path id="a" d="M13,18a5.4,5.4,0,0,1,5.14,5.13V27a0.38,0.38,0,0,1-.37.32A0.39,0.39,0,0,1,17.4,27V23.14a4.67,4.67,0,0,0-4.72-4.39V22.3a0.38,0.38,0,0,1-.59.3l-1-.69L9.76,23.13v3.8a0.38,0.38,0,1,1-.75,0H9V23.17L7.68,21.95l-1,.69a0.38,0.38,0,0,1-.59-0.3V18.79a4.61,4.61,0,0,0-4.34,4.35V27A0.38,0.38,0,1,1,1,27H1V23.14a5.32,5.32,0,0,1,4.57-5,6.08,6.08,0,0,1-2.21-3.92,1.18,1.18,0,0,1-.52.13H2.4a1.16,1.16,0,0,1-1.1-.88,0.37,0.37,0,0,1-.07-0.2V7.69A6.72,6.72,0,0,1,8,1h2.69A6.72,6.72,0,0,1,17.4,7.69v6.12a2.06,2.06,0,0,1-2,2H14.74A6.68,6.68,0,0,1,13,18h0Zm3.68-8a0.42,0.42,0,0,0-.42-0.42H15.83a0.42,0.42,0,0,0-.42.42h0v3.09a0.41,0.41,0,0,0,.42.42h0.44a0.42,0.42,0,0,0,.42-0.42V10Zm-2-2.29a3.65,3.65,0,0,0-3.64-3.64H7.72A3.65,3.65,0,0,0,4.08,7.73V9.52C7.8,10.13,10.36,9,11.8,6.08a0.39,0.39,0,0,1,.27-0.2,0.4,0.4,0,0,1,.33.1l2.29,2.29V7.73ZM4,13A5.49,5.49,0,0,0,6.4,17.77L6.75,18a5.41,5.41,0,0,0,2.54.73h0.1A4.8,4.8,0,0,0,11.72,18L12,17.87a6.17,6.17,0,0,0,1.87-2H10.55a0.38,0.38,0,0,1-.32-0.37,0.39,0.39,0,0,1,.32-0.38h3.69A5.5,5.5,0,0,0,14.65,13V9.34L12.21,6.86A6.75,6.75,0,0,1,5.9,10.43a12.58,12.58,0,0,1-1.84-.16ZM15.4,15.11a1.3,1.3,0,0,0,1.22-.93,1.28,1.28,0,0,1-.34.07H15.84a1.08,1.08,0,0,1-.53-0.14,5.83,5.83,0,0,1-.24,1H15.4ZM2,8.95A1,1,0,0,1,2.4,8.86H2.86a1,1,0,0,1,.42.09V7.73A4.4,4.4,0,0,1,7.67,3.34H11a4.4,4.4,0,0,1,4.45,4.35V8.94a1,1,0,0,1,.42-0.09h0.44a1,1,0,0,1,.42.09V7.69a6,6,0,0,0-6-5.94H8A6,6,0,0,0,2,7.69Zm1.28,4.18V10a0.42,0.42,0,0,0-.42-0.42H2.4A0.41,0.41,0,0,0,2,10v3.09a0.42,0.42,0,0,0,.42.42H2.87a0.41,0.41,0,0,0,.42-0.42h0Zm3.59,8.44L9,20V19.45a6.07,6.07,0,0,1-2.13-.57v2.69Zm3.59-.11-1.09-.78-1.08.78,1.08,1Zm1.41-2.67a5.7,5.7,0,0,1-2.13.66V20l2.13,1.54V18.79Z" transform="translate(-1 -1)" style="fill:#bf0112"/></svg>