<svg id="Layer_1" data-name="Layer 1" xmlns="http://www.w3.org/2000/svg" viewBox="0 0 25 25"><title>hotel-price</title><path id="a" d="M25,13.28v3.13a0.78,0.78,0,0,1-.78.78H23.44v6.25A1.56,1.56,0,0,1,21.88,25H1.56A1.56,1.56,0,0,1,0,23.44V5.85C0,5,.37,3.65,1.52,3.52l7.91-.84,7.11-2.59a1.57,1.57,0,0,1,2,.94l0.25,0.69,1.48-.16a1.59,1.59,0,0,1,1.13.35,1.53,1.53,0,0,1,.48,1.21V4.69a1.56,1.56,0,0,1,1.56,1.56V12.5h0.78a0.78,0.78,0,0,1,.78.78h0ZM19.07,2.47l0.8,2.22h1.22V3.12a0.79,0.79,0,0,0-.21-0.62,0.74,0.74,0,0,0-.52-0.16l-1.29.13h0ZM6.21,4.69h6a2.34,2.34,0,0,1,4.41,0H19L17.81,1.3a0.78,0.78,0,0,0-1-.47h0Zm8.24-.78a1.54,1.54,0,0,0-1.34.78H15.8A1.55,1.55,0,0,0,14.45,3.91ZM1,4.78a1.77,1.77,0,0,1,.52-0.09H3.92L6.4,3.78l-4.79.51A0.76,0.76,0,0,0,1,4.78ZM22.66,17.19H16.41a0.77,0.77,0,0,1-.78-0.76s0,0,0,0V13.28a0.77,0.77,0,0,1,.78-0.78h6.25V6.25a0.78,0.78,0,0,0-.78-0.78H1.56a0.78,0.78,0,0,0-.78.78h0V23.44a0.78,0.78,0,0,0,.78.78H21.88a0.78,0.78,0,0,0,.78-0.78V17.19Zm1.56-3.52a0.4,0.4,0,0,0-.39-0.39h-7a0.39,0.39,0,0,0-.39.39h0V16a0.39,0.39,0,0,0,.39.39h7A0.4,0.4,0,0,0,24.22,16V13.67Z" transform="translate(0 0)" style="fill:#bf0112"/><path id="b" d="M17,14.78a0.78,0.78,0,1,1,1.56,0h0A0.78,0.78,0,0,1,17,14.78Z" transform="translate(0 0)" style="fill:#bf0112"/><path id="c" d="M20.39,7.78h0.78a0.38,0.38,0,0,0,.39-0.39A0.38,0.38,0,0,0,21.19,7h-0.8a0.38,0.38,0,0,0-.39.37s0,0,0,0A0.38,0.38,0,0,0,20.39,7.78Z" transform="translate(0 0)" style="fill:#bf0112"/><path id="d" d="M18.39,7.78h0.78a0.38,0.38,0,0,0,.39-0.39A0.38,0.38,0,0,0,19.19,7h-0.8a0.38,0.38,0,0,0-.39.37s0,0,0,0A0.38,0.38,0,0,0,18.39,7.78Z" transform="translate(0 0)" style="fill:#bf0112"/><path id="e" d="M16.39,7.78h0.78a0.38,0.38,0,0,0,.39-0.39A0.38,0.38,0,0,0,17.19,7h-0.8a0.38,0.38,0,0,0-.39.37s0,0,0,0A0.38,0.38,0,0,0,16.39,7.78Z" transform="translate(0 0)" style="fill:#bf0112"/><path id="f" d="M14.17,7H13.39a0.38,0.38,0,0,0-.39.37s0,0,0,0a0.38,0.38,0,0,0,.39.39h0.78a0.38,0.38,0,0,0,.39-0.39A0.38,0.38,0,0,0,14.19,7h0Z" transform="translate(0 0)" style="fill:#bf0112"/><path id="g" d="M12.17,7H11.39a0.38,0.38,0,0,0-.39.37s0,0,0,0a0.38,0.38,0,0,0,.39.39h0.78a0.38,0.38,0,0,0,.39-0.39A0.38,0.38,0,0,0,12.19,7h0Z" transform="translate(0 0)" style="fill:#bf0112"/><path id="h" d="M10.17,7H9.39A0.38,0.38,0,0,0,9,7.37s0,0,0,0a0.38,0.38,0,0,0,.39.39h0.78a0.38,0.38,0,0,0,.39-0.39A0.38,0.38,0,0,0,10.19,7h0Z" transform="translate(0 0)" style="fill:#bf0112"/><path id="i" d="M7.17,7H6.39A0.38,0.38,0,0,0,6,7.37s0,0,0,0a0.38,0.38,0,0,0,.39.39H7.17a0.38,0.38,0,0,0,.39-0.39A0.38,0.38,0,0,0,7.19,7h0Z" transform="translate(0 0)" style="fill:#bf0112"/><path id="j" d="M5.17,7H4.39A0.38,0.38,0,0,0,4,7.37s0,0,0,0a0.38,0.38,0,0,0,.39.39H5.17a0.38,0.38,0,0,0,.39-0.39A0.38,0.38,0,0,0,5.19,7h0Z" transform="translate(0 0)" style="fill:#bf0112"/><path id="k" d="M3.17,7H2.39A0.38,0.38,0,0,0,2,7.37s0,0,0,0a0.38,0.38,0,0,0,.39.39H3.17a0.38,0.38,0,0,0,.39-0.39A0.38,0.38,0,0,0,3.19,7h0Z" transform="translate(0 0)" style="fill:#bf0112"/><path id="l" d="M20.39,22.78h0.78a0.38,0.38,0,0,0,.39-0.39A0.38,0.38,0,0,0,21.19,22h-0.8a0.38,0.38,0,0,0-.39.37s0,0,0,0A0.38,0.38,0,0,0,20.39,22.78Z" transform="translate(0 0)" style="fill:#bf0112"/><path id="m" d="M18.39,22.78h0.78a0.38,0.38,0,0,0,.39-0.39A0.38,0.38,0,0,0,19.19,22h-0.8a0.38,0.38,0,0,0-.39.37s0,0,0,0A0.38,0.38,0,0,0,18.39,22.78Z" transform="translate(0 0)" style="fill:#bf0112"/><path id="n" d="M16,22.39a0.38,0.38,0,0,0,.39.39h0.78a0.38,0.38,0,0,0,.39-0.39A0.38,0.38,0,0,0,17.19,22h-0.8a0.38,0.38,0,0,0-.39.37S16,22.38,16,22.39Z" transform="translate(0 0)" style="fill:#bf0112"/><path id="o" d="M14.17,22H13.39a0.38,0.38,0,0,0-.39.37s0,0,0,0a0.38,0.38,0,0,0,.39.39h0.78a0.38,0.38,0,0,0,.39-0.39A0.38,0.38,0,0,0,14.19,22h0Z" transform="translate(0 0)" style="fill:#bf0112"/><path id="p" d="M12.17,22H11.39a0.38,0.38,0,0,0-.39.37s0,0,0,0a0.38,0.38,0,0,0,.39.39h0.78a0.38,0.38,0,0,0,.39-0.39A0.38,0.38,0,0,0,12.19,22h0Z" transform="translate(0 0)" style="fill:#bf0112"/><path id="q" d="M10.17,22H9.39a0.38,0.38,0,0,0-.39.37s0,0,0,0a0.38,0.38,0,0,0,.39.39h0.78a0.38,0.38,0,0,0,.39-0.39A0.38,0.38,0,0,0,10.19,22h0Z" transform="translate(0 0)" style="fill:#bf0112"/><path id="r" d="M7.17,22H6.39a0.38,0.38,0,0,0-.39.37s0,0,0,0a0.38,0.38,0,0,0,.39.39H7.17a0.38,0.38,0,0,0,.39-0.39A0.38,0.38,0,0,0,7.19,22h0Z" transform="translate(0 0)" style="fill:#bf0112"/><path id="s" d="M5.17,22H4.39a0.38,0.38,0,0,0-.39.37s0,0,0,0a0.38,0.38,0,0,0,.39.39H5.17a0.38,0.38,0,0,0,.39-0.39A0.38,0.38,0,0,0,5.19,22h0Z" transform="translate(0 0)" style="fill:#bf0112"/><path id="t" d="M3.17,22H2.39a0.38,0.38,0,0,0-.39.37s0,0,0,0a0.38,0.38,0,0,0,.39.39H3.17a0.38,0.38,0,0,0,.39-0.39A0.38,0.38,0,0,0,3.19,22h0Z" transform="translate(0 0)" style="fill:#bf0112"/></svg>