<svg id="Layer_1" data-name="Layer 1" xmlns="http://www.w3.org/2000/svg" viewBox="0 0 25 25"><title>hotels</title><path id="a" d="M25,9.38V23.44A1.56,1.56,0,0,1,23.44,25H1.56A1.56,1.56,0,0,1,0,23.44v-18A1.56,1.56,0,0,1,1.56,3.91H6.25V1.56A1.56,1.56,0,0,1,7.81,0h9.38a1.56,1.56,0,0,1,1.56,1.56V7.81h4.69A1.56,1.56,0,0,1,25,9.38ZM6.25,4.69H1.56a0.78,0.78,0,0,0-.78.78h0v18a0.78,0.78,0,0,0,.78.78H6.25V4.69Zm7.42,16.4H11.33v3.13h2.34V21.09ZM18,1.56A0.78,0.78,0,0,0,17.19.78H7.81A0.78,0.78,0,0,0,7,1.56H7V24.22h3.52V20.7a0.39,0.39,0,0,1,.39-0.39h3.12a0.39,0.39,0,0,1,.39.39v3.52H18V1.56Zm6.25,7.82a0.78,0.78,0,0,0-.77-0.79h-4.7V24.22h4.69a0.78,0.78,0,0,0,.78-0.78V9.38Z" style="fill:#bf0112"/><path id="b" d="M2,8.95V7.39A0.38,0.38,0,0,1,2.39,7H3.95a0.38,0.38,0,0,1,.39.39V8.95a0.38,0.38,0,0,1-.39.39H2.39A0.38,0.38,0,0,1,2,9S2,9,2,8.95Zm0.78-.39H3.56V7.78H2.78V8.56Z" style="fill:#bf0112"/><path id="c" d="M2,12.95V11.39A0.38,0.38,0,0,1,2.39,11H3.95a0.38,0.38,0,0,1,.39.39v1.56a0.38,0.38,0,0,1-.39.39H2.39A0.38,0.38,0,0,1,2,13S2,13,2,12.95Zm0.78-.39H3.56V11.78H2.78v0.78Z" style="fill:#bf0112"/><path id="d" d="M2,16.95V15.39A0.38,0.38,0,0,1,2.39,15H3.95a0.38,0.38,0,0,1,.39.39v1.56a0.38,0.38,0,0,1-.39.39H2.39A0.38,0.38,0,0,1,2,17S2,17,2,16.95Zm0.78-.39H3.56V15.78H2.78v0.78Z" style="fill:#bf0112"/><path id="e" d="M11.34,7.39V9a0.38,0.38,0,0,1-.39.39H9.39A0.38,0.38,0,0,1,9,9S9,9,9,9V7.39A0.38,0.38,0,0,1,9.39,7h1.56A0.38,0.38,0,0,1,11.34,7.39Zm-0.78.39H9.78V8.56h0.78V7.78Z" style="fill:#bf0112"/><path id="f" d="M11.34,11.39V13a0.38,0.38,0,0,1-.39.39H9.39A0.38,0.38,0,0,1,9,13s0,0,0,0V11.39A0.38,0.38,0,0,1,9.39,11h1.56A0.38,0.38,0,0,1,11.34,11.39Zm-0.78.39H9.78v0.78h0.78V11.78Z" style="fill:#bf0112"/><path id="g" d="M11.34,15.39V17a0.38,0.38,0,0,1-.39.39H9.39A0.38,0.38,0,0,1,9,17s0,0,0,0V15.39A0.38,0.38,0,0,1,9.39,15h1.56A0.38,0.38,0,0,1,11.34,15.39Zm-0.78.39H9.78v0.78h0.78V15.78Z" style="fill:#bf0112"/><path id="h" d="M15.34,7.39V9a0.38,0.38,0,0,1-.39.39H13.39A0.38,0.38,0,0,1,13,9s0,0,0,0V7.39A0.38,0.38,0,0,1,13.39,7h1.56A0.38,0.38,0,0,1,15.34,7.39Zm-0.78.39H13.78V8.56h0.78V7.78Z" style="fill:#bf0112"/><path id="i" d="M11.34,3.39V5a0.38,0.38,0,0,1-.39.39H9.39A0.38,0.38,0,0,1,9,5S9,5,9,5V3.39A0.38,0.38,0,0,1,9.39,3h1.56A0.38,0.38,0,0,1,11.34,3.39Zm-0.78.39H9.78V4.56h0.78V3.78Z" style="fill:#bf0112"/><path id="j" d="M15.34,3.39V5a0.38,0.38,0,0,1-.39.39H13.39A0.38,0.38,0,0,1,13,5s0,0,0,0V3.39A0.38,0.38,0,0,1,13.39,3h1.56A0.38,0.38,0,0,1,15.34,3.39Zm-0.78.39H13.78V4.56h0.78V3.78Z" style="fill:#bf0112"/><path id="k" d="M15.34,11.39V13a0.38,0.38,0,0,1-.39.39H13.39A0.38,0.38,0,0,1,13,13s0,0,0,0V11.39A0.38,0.38,0,0,1,13.39,11h1.56A0.38,0.38,0,0,1,15.34,11.39Zm-0.78.39H13.78v0.78h0.78V11.78Z" style="fill:#bf0112"/><path id="l" d="M15.34,15.39V17a0.38,0.38,0,0,1-.39.39H13.39A0.38,0.38,0,0,1,13,17s0,0,0,0V15.39A0.38,0.38,0,0,1,13.39,15h1.56A0.38,0.38,0,0,1,15.34,15.39Zm-0.78.39H13.78v0.78h0.78V15.78Z" style="fill:#bf0112"/><path id="m" d="M22.34,11.39V13a0.38,0.38,0,0,1-.39.39H20.39A0.38,0.38,0,0,1,20,13s0,0,0,0V11.39A0.38,0.38,0,0,1,20.39,11h1.56A0.38,0.38,0,0,1,22.34,11.39Zm-0.78.39H20.78v0.78h0.78V11.78Z" style="fill:#bf0112"/><path id="n" d="M22.34,15.39V17a0.38,0.38,0,0,1-.39.39H20.39A0.38,0.38,0,0,1,20,17s0,0,0,0V15.39A0.38,0.38,0,0,1,20.39,15h1.56A0.38,0.38,0,0,1,22.34,15.39Zm-0.78.39H20.78v0.78h0.78V15.78Z" style="fill:#bf0112"/><path id="o" d="M22.34,19.39V21a0.38,0.38,0,0,1-.39.39H20.39A0.38,0.38,0,0,1,20,21s0,0,0,0V19.39A0.38,0.38,0,0,1,20.39,19h1.56A0.38,0.38,0,0,1,22.34,19.39Zm-0.78.39H20.78v0.78h0.78V19.78Z" style="fill:#bf0112"/><path id="p" d="M2,20.95V19.39A0.38,0.38,0,0,1,2.39,19H3.95a0.38,0.38,0,0,1,.39.39v1.56a0.38,0.38,0,0,1-.39.39H2.39A0.38,0.38,0,0,1,2,21S2,21,2,20.95Zm0.78-.39H3.56V19.78H2.78v0.78Z" style="fill:#bf0112"/></svg>