<?xml version="1.0" encoding="UTF-8"?>
<svg width="26px" height="26px" viewBox="0 0 26 26" version="1.1" xmlns="http://www.w3.org/2000/svg" xmlns:xlink="http://www.w3.org/1999/xlink">
    <!-- Generator: Sketch 47 (45396) - http://www.bohemiancoding.com/sketch -->
    <title>map</title>
    <desc>Created with Sketch.</desc>
    <defs></defs>
    <g id="Page-1" stroke="none" stroke-width="1" fill="none" fill-rule="evenodd">
        <g id="LINK-1-OFFER-(-more-cities-)" transform="translate(-202.000000, -1611.000000)" fill-rule="nonzero" fill="#BF0112">
            <g id="Group-25-Copy" transform="translate(0.000000, 1593.000000)">
                <g id="Group-24">
                    <g id="map" transform="translate(202.000000, 18.000000)">
                        <path d="M25.335375,0.31403125 C25.0534375,0.10725 24.7154375,0.00040625 24.3741875,0.00040625 C24.2104688,0.00040625 24.0455312,0.0251875 23.885875,0.0755625 L16.6696562,2.35421875 L9.85725,0.08328125 C9.6906875,0.027625 9.51721875,0 9.34334375,0 C9.15321875,0 8.9626875,0.0333125 8.78190625,0.10034375 L1.06315625,2.94409375 C0.42453125,3.1793125 0,3.787875 0,4.46875 L0,24.375 C0,24.8925625 0.24659375,25.3796563 0.664625,25.6859687 C0.9465625,25.8923437 1.28375,26 1.625,26 C1.789125,26 1.95446875,25.9748125 2.114125,25.9244375 L9.34375,23.6413125 L16.573375,25.9244375 C16.732625,25.9748125 16.8971563,26 17.0620938,26 C17.2359688,26 17.4094375,25.972375 17.5764063,25.9167188 L24.8889063,23.4792188 C25.5523125,23.2578125 26,22.6370625 26,21.9375 L26,1.625 C26,1.1074375 25.7534063,0.62034375 25.335375,0.31403125 Z M24.129625,0.8506875 C24.2088438,0.8255 24.2913125,0.81290625 24.3745938,0.81290625 C24.54725,0.81290625 24.717875,0.8685625 24.8555938,0.96971875 C25.0631875,1.1220625 25.1875,1.36703125 25.1875,1.625 L25.1875,11.8161875 C25.0924375,11.8015625 24.9937188,11.7824688 24.890125,11.7625625 C24.4160313,11.6679063 24.1186563,11.5509063 23.76075,11.1345 C23.33825,10.651875 23.5840313,9.8710625 23.1184688,9.4631875 C22.9389063,9.309625 22.7666563,9.2584375 22.5927813,9.2584375 C22.2580313,9.25803125 21.9175938,9.4485625 21.5060625,9.4631875 C20.82925,9.49325 20.3636875,9.7703125 19.80225,9.7703125 C19.6287813,9.7703125 19.4459688,9.7443125 19.244875,9.67565625 C18.6996875,9.48878125 18.490875,9.0618125 17.9538125,8.838375 C17.78075,8.76525 17.6227188,8.72015625 17.4691563,8.6864375 L17.4691563,6.1709375 C17.9265938,6.33384375 18.3344688,6.48496875 18.9215,6.5414375 C19.2428438,6.57353125 19.5024375,6.6958125 19.7624375,6.6958125 C19.9086875,6.6958125 20.0553438,6.6568125 20.2125625,6.5414375 C20.6996563,6.17825 21.1180938,5.516875 20.8593125,4.8725625 C20.691125,4.44803125 20.2860938,4.6076875 20.0488438,4.24490625 C19.7945313,3.84515625 19.9151875,3.4799375 19.7299375,2.99446875 C19.8453125,2.63859375 20.0419375,2.38834375 20.1508125,2.1068125 L24.129625,0.8506875 Z M18.9706562,3.284125 C19.01575,3.40315625 19.0299687,3.52259375 19.0474375,3.67371875 C19.0783125,3.93778125 19.1209687,4.30015625 19.3626875,4.6808125 C19.6076563,5.05496875 19.9298125,5.19471875 20.1231875,5.2690625 C20.1292813,5.48396875 19.9200625,5.74153125 19.7380625,5.88128125 C19.6889062,5.874375 19.6003438,5.8524375 19.5329062,5.835375 C19.3890937,5.7988125 19.2103437,5.754125 19.001125,5.733 C18.5323125,5.68790625 18.204875,5.5713125 17.7909062,5.42303125 C17.6909687,5.38728125 17.5796562,5.34909375 17.4683437,5.3113125 L17.4683437,2.95384375 L19.0779063,2.445625 C19.0356563,2.53865625 18.9921875,2.6333125 18.9564375,2.7438125 C18.8995625,2.920125 18.9044375,3.1110625 18.9706562,3.284125 Z M16.65625,8.6181875 C16.4356562,8.62265625 16.2089687,8.6344375 15.9538437,8.6344375 C15.8709687,8.6344375 15.7856562,8.6328125 15.6962812,8.62915625 C15.6483437,8.627125 15.601625,8.6263125 15.5553125,8.6263125 C15.1055937,8.6263125 14.7615,8.71284375 14.3767812,8.71284375 C14.1870625,8.71284375 13.988,8.69171875 13.7605,8.62915625 C13.2364375,8.48371875 12.8013437,8.55278125 12.4690312,8.00678125 C12.0835,7.3588125 12.103,6.57759375 12.4690312,5.91378125 C12.8525312,5.22721875 13.430625,5.38321875 14.083875,5.2885625 C14.204125,5.2723125 14.3174687,5.26459375 14.4263437,5.26459375 C15.237625,5.26459375 15.7726562,5.6818125 16.6558437,5.91134375 L16.6558437,8.6181875 L16.65625,8.6181875 Z M12.7737188,17.9631562 C12.5584063,18.4872187 12.1606875,18.5965 11.7150313,18.5965 C11.6386563,18.5965 11.5610625,18.59325 11.4826563,18.588375 C11.0040938,18.5603437 10.7887813,18.2199062 10.3532813,17.9631562 C9.9385,17.7185937 9.65209375,17.3838437 9.34415625,17.1201875 L9.34415625,11.8470625 C9.647625,12.2569687 9.76665625,12.6745937 10.1895625,12.9484062 C10.3536875,13.0548437 10.5100938,13.0922187 10.6628438,13.0922187 C11.028875,13.0922187 11.3754063,12.8773125 11.7621563,12.8773125 C11.8795625,12.8773125 12.0010313,12.8972187 12.127375,12.9488125 C12.7761563,13.219375 13.3278438,13.38675 13.5776875,14.207375 C13.7414063,14.7355 13.745875,15.140125 13.5776875,15.6645937 C13.4119375,16.19475 12.9264688,16.1667187 12.7737188,16.70825 C12.637625,17.1705625 12.9484063,17.5276562 12.7737188,17.9631562 Z M0.8125,7.782125 C1.16796875,7.77928125 1.5120625,7.7553125 1.96584375,7.73215625 C2.5325625,7.700875 2.9388125,7.40065625 3.4035625,7.40065625 C3.5595625,7.40065625 3.7220625,7.434375 3.89959375,7.52334375 C4.44275,7.78821875 4.54390625,8.3655 5.031,8.773375 C5.7663125,9.3900625 6.35009375,9.29825 7.12846875,9.82028125 C7.70859375,10.209875 8.11078125,10.5344687 8.53125,10.9520937 L8.53125,16.7249063 C8.49265625,16.719625 8.458125,16.7090625 8.4175,16.7074375 C8.266375,16.7029688 8.1290625,16.6850938 8.00109375,16.6850938 C7.8040625,16.6850938 7.6269375,16.7265312 7.4498125,16.9190937 C7.14390625,17.2485625 7.40715625,17.8071562 7.128875,18.1695313 C6.9265625,18.4384688 6.69946875,18.5221563 6.4520625,18.5221563 C6.2115625,18.5221563 5.95196875,18.44375 5.676125,18.37875 C5.122,18.2524062 4.93878125,17.6779688 4.38709375,17.5439063 C4.1803125,17.4943438 4.01496875,17.4545313 3.8471875,17.4545313 C3.71353125,17.4545313 3.57865625,17.4797187 3.419,17.5439063 C2.73325,17.823 2.61909375,18.5956875 2.2871875,19.4248438 C2.0158125,20.1114063 2.28515625,20.84225 1.8045625,21.3000938 C1.57096875,21.523125 1.347125,21.5917813 1.105,21.5917813 C1.01115625,21.5917813 0.91365625,21.5812188 0.81290625,21.5657813 L0.81290625,7.782125 L0.8125,7.782125 Z M1.34428125,3.706625 L8.53125,1.0586875 L8.53125,9.8515625 C8.2460625,9.6126875 7.944625,9.38965625 7.5814375,9.14590625 C7.141875,8.85096875 6.76121875,8.71690625 6.42565625,8.59828125 C6.08603125,8.47884375 5.8410625,8.3923125 5.55303125,8.15059375 C5.43115625,8.048625 5.33528125,7.904 5.2235625,7.7358125 C5.01759375,7.4254375 4.76125,7.03909375 4.25546875,6.7925 C3.9869375,6.65803125 3.6976875,6.58775 3.40315625,6.58775 C3.03671875,6.58775 2.731625,6.69215625 2.46309375,6.784375 C2.26484375,6.85221875 2.09340625,6.911125 1.92075,6.92046875 L1.5933125,6.93875 C1.295125,6.955 1.0554375,6.968 0.8125,6.969625 L0.8125,4.46875 C0.8125,4.1299375 1.02578125,3.823625 1.34428125,3.706625 Z M1.86996875,25.1497188 C1.79034375,25.1749063 1.707875,25.1875 1.625,25.1875 C1.451125,25.1875 1.28496875,25.1330625 1.1448125,25.0302813 C0.9368125,24.8779375 0.8125,24.6329688 0.8125,24.375 L0.8125,22.38275 C0.90796875,22.394125 1.00425,22.4050938 1.10459375,22.4050938 C1.5884375,22.4050938 2.0011875,22.2360938 2.3651875,21.88875 C2.8754375,21.4032813 2.91646875,20.7849688 2.94734375,20.3340313 C2.962375,20.106125 2.977,19.8912188 3.0428125,19.7246563 C3.1159375,19.54225 3.180125,19.3594375 3.24146875,19.183125 C3.43728125,18.6245313 3.54209375,18.37225 3.72490625,18.2975 C3.79721875,18.26825 3.8293125,18.26825 3.84678125,18.26825 C3.91990625,18.26825 4.04828125,18.299125 4.1965625,18.334875 C4.25628125,18.3495 4.3574375,18.4461875 4.46428125,18.5485625 C4.68934375,18.7634688 4.99728125,19.0584063 5.4949375,19.17175 L5.64240625,19.2075 C5.8849375,19.2672188 6.1595625,19.3350625 6.45125,19.3350625 C6.98546875,19.3350625 7.444125,19.1010625 7.77765625,18.65825 C8.06771875,18.2800313 8.08071875,17.8559063 8.0900625,17.5751875 C8.090875,17.55325 8.0916875,17.5276563 8.0925,17.5016563 C8.11525,17.502875 8.138,17.5049063 8.1615625,17.5065313 C8.23590625,17.5122188 8.3126875,17.5170938 8.393125,17.5195313 C8.4410625,17.5215625 8.48615625,17.5305 8.53125,17.5471563 L8.53125,23.04575 L1.86996875,25.1497188 Z M9.58871875,22.8665937 L9.34375,22.7894062 L9.34375,18.2203125 C9.5151875,18.3718438 9.7069375,18.5254062 9.9409375,18.6635313 C10.0384375,18.7212188 10.1314687,18.7935313 10.229375,18.8707187 C10.495875,19.0799375 10.8610938,19.3659375 11.435125,19.3996562 C11.5281563,19.40575 11.6224062,19.409 11.7150312,19.409 C12.6059375,19.409 13.2149062,19.0267188 13.5252813,18.2723125 C13.7072813,17.8185312 13.632125,17.4285312 13.5821563,17.1705625 C13.563875,17.077125 13.5435625,16.9706875 13.5537188,16.9365625 L13.560625,16.9154375 C13.5728125,16.8991875 13.635375,16.8504375 13.6804688,16.8142812 C13.8738438,16.6623437 14.1968125,16.407625 14.353625,15.9067187 C14.5673125,15.2384375 14.568125,14.6566875 14.3540313,13.9660625 C14.0115625,12.8427812 13.2185625,12.5177812 12.5811563,12.2565625 L12.4401875,12.1984687 C12.2204063,12.1086875 11.994125,12.0644062 11.7621563,12.0644062 C11.448125,12.0644062 11.18,12.1440312 10.9655,12.2082187 C10.8472813,12.2435625 10.725,12.2797187 10.6628438,12.2797187 C10.6547188,12.2793125 10.6474063,12.276875 10.6311563,12.2667187 C10.5141563,12.19075 10.4377813,12.0668437 10.3020938,11.8360937 C10.18875,11.6427187 10.047375,11.4030312 9.83653125,11.1629375 C9.66021875,10.9626562 9.49934375,10.7863437 9.34375,10.6230312 L9.34375,0.8125 C9.4315,0.8125 9.517625,0.8263125 9.6005,0.85434375 L16.4125,3.124875 L16.65625,3.206125 L16.65625,5.06065625 C16.4515,4.99565625 16.2585313,4.92375 16.0623125,4.84534375 C15.5817188,4.65196875 15.0844688,4.45209375 14.42675,4.45209375 C14.278875,4.45209375 14.1265313,4.46225 13.9741875,4.483375 C13.8551563,4.5004375 13.7357188,4.50815625 13.609375,4.51546875 C13.078,4.5475625 12.27525,4.5963125 11.7605312,5.51728125 C11.2425625,6.4569375 11.2474375,7.54121875 11.7715,8.422375 C12.21675,9.15484375 12.8399375,9.2714375 13.2526875,9.34903125 C13.3554688,9.368125 13.4525625,9.38640625 13.5439688,9.41159375 C13.820625,9.48796875 14.0932187,9.5249375 14.3775937,9.5249375 C14.60875,9.5249375 14.8139062,9.501375 15.0121563,9.47903125 C15.195375,9.4583125 15.3684375,9.43840625 15.556125,9.43840625 C15.5910625,9.43840625 15.6272187,9.43921875 15.6637812,9.4404375 C15.7649375,9.44490625 15.8612187,9.44653125 15.9546562,9.44653125 C16.1236562,9.44653125 16.2812812,9.44084375 16.4328125,9.43596875 C16.5095938,9.433125 16.5827187,9.43190625 16.6570625,9.43028125 L16.6570625,25.098125 L9.58871875,22.8665937 Z M24.63175,22.7081563 L17.46875,25.0956875 L17.46875,9.52615625 C17.524,9.54403125 17.5788438,9.5623125 17.6385625,9.58709375 C17.782375,9.6468125 17.8936875,9.74065625 18.0476562,9.87065625 C18.2727187,10.060375 18.552625,10.2968125 18.9812188,10.4434688 C19.25625,10.5369063 19.5239687,10.5824063 19.80225,10.5824063 C20.1902187,10.5824063 20.525375,10.4922188 20.821125,10.4125938 C21.0636563,10.3471875 21.292375,10.2858438 21.5422187,10.2744688 C21.84,10.2639063 22.0971563,10.1924063 22.3039375,10.135125 C22.4050938,10.1075 22.5188438,10.0758125 22.5785625,10.0709375 C22.61025,10.128625 22.6395,10.3114375 22.659,10.4337188 C22.7154688,10.7826875 22.79225,11.26125 23.1493437,11.6695313 C23.6441563,12.2451875 24.1223125,12.4373438 24.730875,12.5588125 L24.773125,12.5673438 C24.9075938,12.5925313 25.046125,12.6152813 25.1879063,12.6323438 L25.1879063,21.9375 C25.1875,22.2876875 24.9640625,22.5976563 24.63175,22.7081563 Z" id="Shape"></path>
                        <path d="M22.4680625,15.9745625 C22.192625,15.8900625 21.932625,15.8104375 21.6515,15.8104375 C21.386625,15.8104375 21.1473438,15.8823438 20.918625,16.0310313 C20.661875,16.2004375 20.5879375,16.4096563 20.570875,16.5546875 C20.5257813,16.9467188 20.81625,17.2546563 21.1237812,17.5804688 C21.3293437,17.7982188 21.6397188,18.1272812 21.5795937,18.2836875 C21.5405937,18.3876875 21.4227812,18.4445625 21.181875,18.5408438 C20.8824687,18.6610938 20.4290937,18.841875 20.3311875,19.3821875 C20.2759375,19.682 20.3441875,19.9574375 20.5282187,20.1784375 C20.787,20.4884063 21.2558125,20.6590313 21.84975,20.6590313 C22.4550625,20.6590313 23.0502187,20.4843438 23.4455,20.1894063 C24.1170312,19.6742813 24.3745937,18.9219063 24.210875,17.9538125 C24.0475625,16.9662187 23.453625,16.2845313 22.4680625,15.9745625 Z M22.9551563,19.5418438 C22.7073437,19.7270938 22.2730625,19.8469375 21.84975,19.8469375 C21.4764063,19.8469375 21.2310313,19.7526875 21.1522188,19.6584375 C21.1384063,19.6417813 21.1144375,19.6133438 21.129875,19.5284375 C21.1449063,19.4475938 21.2074688,19.4061563 21.4833125,19.2960625 C21.7737813,19.179875 22.1715,19.020625 22.3392813,18.572125 C22.5801875,17.9412188 22.0796875,17.4110625 21.7140625,17.0235 C21.617375,16.921125 21.4825,16.778125 21.4154687,16.6810313 C21.62875,16.5685 21.8720938,16.6420312 22.2499063,16.7582187 C22.9169688,16.96825 23.296,17.4025312 23.4093438,18.0882812 C23.5239063,18.7646875 23.3825312,19.214 22.9551563,19.5418438 Z" id="Shape"></path>
                    </g>
                </g>
            </g>
        </g>
    </g>
</svg>