<svg id="Layer_1" data-name="Layer 1" xmlns="http://www.w3.org/2000/svg" viewBox="0 0 40 40"><title>one-country-sliderNav-mobile</title><g id="Page-1"><g id="ONE-COUNTRY-List"><g id="OFFERTA"><g id="Group-Copy-4"><g id="Group-12"><g id="Rectangle-21-Copy"><path id="path-1" d="M20,0h0A20,20,0,0,1,40,20h0A20,20,0,0,1,20,40h0A20,20,0,0,1,0,20H0A20,20,0,0,1,20,0Z" style="fill:#fff"/><path d="M20,0.5h0A19.5,19.5,0,0,1,39.5,20h0A19.5,19.5,0,0,1,20,39.5h0A19.5,19.5,0,0,1,.5,20h0A19.5,19.5,0,0,1,20,.5Z" style="fill:none;stroke:#ececec"/></g><g id="Group-13"><g id="Group-16"><path id="Line-4" d="M12.44,19.51H17.8" style="fill:none;stroke:#bf0112;stroke-linecap:square"/><path id="Line-4-Copy-3" d="M23.17,19.51h5.37" style="fill:none;stroke:#bf0112;stroke-linecap:square"/><ellipse id="Oval-2" cx="20.49" cy="19.51" rx="1.34" ry="1.3" style="fill:#bf0112"/><path id="Triangle" d="M10.24,19.43l3.05-1.78h0a0.1,0.1,0,0,1,.15.09v3.55h0a0.1,0.1,0,0,1-.1.1H13.29L10.24,19.6h0a0.1,0.1,0,0,1,0-.14Z" style="fill:#bf0112;stroke:#bf0112"/><path id="Triangle-Copy" d="M30.74,19.43l-3.05-1.78h0a0.1,0.1,0,0,0-.15.09v3.55h0a0.1,0.1,0,0,0,.1.1h0.05l3.05-1.78h0a0.1,0.1,0,0,0,0-.14Z" style="fill:#bf0112;stroke:#bf0112"/></g></g></g></g></g></g></g></svg>