<?xml version="1.0" encoding="UTF-8"?>
<svg width="32px" height="8px" viewBox="0 0 32 8" version="1.1" xmlns="http://www.w3.org/2000/svg" xmlns:xlink="http://www.w3.org/1999/xlink">
    <!-- Generator: Sketch 47 (45396) - http://www.bohemiancoding.com/sketch -->
    <title>Group 16</title>
    <desc>Created with Sketch.</desc>
    <defs></defs>
    <g id="Page-1" stroke="none" stroke-width="1" fill="none" fill-rule="evenodd">
        <g id="ONE-COUNTRY-List" transform="translate(-1169.000000, -838.000000)">
            <g id="OFERTA" transform="translate(0.000000, 709.000000)">
                <g id="Group-Copy-4" transform="translate(1155.000000, 103.000000)">
                    <g id="Group-13" transform="translate(14.000000, 27.000000)">
                        <g id="Group-16">
                            <path d="M4,3 L12,3" id="Line-4" stroke="#BF0112" stroke-linecap="square"></path>
                            <path d="M20,3 L28,3" id="Line-4-Copy-3" stroke="#BF0112" stroke-linecap="square"></path>
                            <circle id="Oval-2" fill="#BF0112" cx="16" cy="3" r="2"></circle>
                            <path d="M0.642915488,2.91425071 L5.34855042,0.0908697453 L5.34855042,0.0908697453 C5.39590845,0.0624549294 5.45733448,0.0778114358 5.48574929,0.125169462 C5.49507422,0.140711003 5.5,0.158494643 5.5,0.176619038 L5.5,5.82338096 L5.5,5.82338096 C5.5,5.87860944 5.45522847,5.92338096 5.4,5.92338096 C5.38187561,5.92338096 5.36409196,5.91845518 5.34855042,5.90913025 L0.642915488,3.08574929 L0.642915488,3.08574929 C0.595557461,3.05733448 0.580200955,2.99590845 0.608615771,2.94855042 C0.617060747,2.93447546 0.628840527,2.92269568 0.642915488,2.91425071 Z" id="Triangle" stroke="#BF0112" fill="#BF0112"></path>
                            <path d="M26.5485655,2.91425071 L31.2542005,0.0908697453 L31.2542005,0.0908697453 C31.3015585,0.0624549294 31.3629845,0.0778114358 31.3913993,0.125169462 C31.4007243,0.140711003 31.40565,0.158494643 31.40565,0.176619038 L31.40565,5.82338096 L31.40565,5.82338096 C31.40565,5.87860944 31.3608785,5.92338096 31.30565,5.92338096 C31.2875257,5.92338096 31.269742,5.91845518 31.2542005,5.90913025 L26.5485655,3.08574929 L26.5485655,3.08574929 C26.5012075,3.05733448 26.485851,2.99590845 26.5142658,2.94855042 C26.5227108,2.93447546 26.5344906,2.92269568 26.5485655,2.91425071 Z" id="Triangle-Copy" stroke="#BF0112" fill="#BF0112" transform="translate(28.952825, 2.999992) scale(-1, 1) translate(-28.952825, -2.999992) "></path>
                        </g>
                    </g>
                </g>
            </g>
        </g>
    </g>
</svg>