<svg id="Layer_1" data-name="Layer 1" xmlns="http://www.w3.org/2000/svg" viewBox="0 0 40 40"><title>one-country-listNav-mobile</title><g id="Page-1"><g id="ONE-COUNTRY"><g id="OFFERTA"><g id="Group-Copy-4"><g id="Group-12"><g id="Rectangle-21"><path id="path-1" d="M20.49,0h0a20,20,0,0,1,20,20h0a20,20,0,0,1-20,20h0a20,20,0,0,1-20-20h0A20,20,0,0,1,20.49,0Z" transform="translate(-0.49)" style="fill:#fff"/><path d="M20.49,0.5h0A19.5,19.5,0,0,1,40,20h0a19.5,19.5,0,0,1-19.5,19.5h0A19.5,19.5,0,0,1,1,20H1A19.5,19.5,0,0,1,20.49.5Z" transform="translate(-0.49)" style="fill:none;stroke:#ececec"/></g><g id="Group-11"><ellipse id="Oval-2" cx="12.08" cy="13.01" rx="1.35" ry="1.3" style="fill:#bf0112"/><path id="Line-4" d="M16.29,13H28.44" transform="translate(-0.49)" style="fill:none;stroke:#bf0112;stroke-linecap:square"/><path id="Line-4-Copy" d="M16.29,19.51H28.44" transform="translate(-0.49)" style="fill:none;stroke:#bf0112;stroke-linecap:square"/><path id="Line-4-Copy-2" d="M16.29,26H28.44" transform="translate(-0.49)" style="fill:none;stroke:#bf0112;stroke-linecap:square"/><ellipse id="Oval-2-Copy" cx="12.08" cy="19.51" rx="1.35" ry="1.3" style="fill:#bf0112"/><ellipse id="Oval-2-Copy-2" cx="12.08" cy="26.02" rx="1.35" ry="1.3" style="fill:#bf0112"/></g></g></g></g></g></g></svg>