<?xml version="1.0" encoding="UTF-8"?>
<svg width="32px" height="8px" viewBox="0 0 32 8" version="1.1" xmlns="http://www.w3.org/2000/svg" xmlns:xlink="http://www.w3.org/1999/xlink">
    <!-- Generator: Sketch 47 (45396) - http://www.bohemiancoding.com/sketch -->
    <title>Group 16</title>
    <desc>Created with Sketch.</desc>
    <defs></defs>
    <g id="Page-1" stroke="none" stroke-width="1" fill="none" fill-rule="evenodd">
        <g id="ONE-COUNTRY-Tabs" transform="translate(-1169.000000, -838.000000)">
            <g id="OFERTA" transform="translate(0.000000, 709.000000)">
                <g id="Group-Copy-4" transform="translate(1155.000000, 103.000000)">
                    <g id="Group-13" transform="translate(14.000000, 27.000000)">
                        <g id="Group-16">
                            <path d="M4,3 L12,3" id="Line-4" stroke="#FFFFFF" stroke-linecap="square"></path>
                            <path d="M20,3 L28,3" id="Line-4-Copy-3" stroke="#FFFFFF" stroke-linecap="square"></path>
                            <circle id="Oval-2" fill="#FFFFFF" cx="16" cy="3" r="2"></circle>
                            <path d="M0.642915488,2.91425071 L5.34855042,0.0908697453 L5.34855042,0.0908697453 C5.39590845,0.0624549294 5.45733448,0.0778114358 5.48574929,0.125169462 C5.49507422,0.140711003 5.5,0.158494643 5.5,0.176619038 L5.5,5.82338096 L5.5,5.82338096 C5.5,5.87860944 5.45522847,5.92338096 5.4,5.92338096 C5.38187561,5.92338096 5.36409196,5.91845518 5.34855042,5.90913025 L0.642915488,3.08574929 L0.642915488,3.08574929 C0.595557461,3.05733448 0.580200955,2.99590845 0.608615771,2.94855042 C0.617060747,2.93447546 0.628840527,2.92269568 0.642915488,2.91425071 Z" id="Triangle" stroke="#FFFFFF" fill="#FFFFFF"></path>
                            <path d="M26.6429155,2.91425071 L31.3485504,0.0908697453 L31.3485504,0.0908697453 C31.3959085,0.0624549294 31.4573345,0.0778114358 31.4857493,0.125169462 C31.4950742,0.140711003 31.5,0.158494643 31.5,0.176619038 L31.5,5.82338096 L31.5,5.82338096 C31.5,5.87860944 31.4552285,5.92338096 31.4,5.92338096 C31.3818756,5.92338096 31.364092,5.91845518 31.3485504,5.90913025 L26.6429155,3.08574929 L26.6429155,3.08574929 C26.5955575,3.05733448 26.580201,2.99590845 26.6086158,2.94855042 C26.6170607,2.93447546 26.6288405,2.92269568 26.6429155,2.91425071 Z" id="Triangle-Copy" stroke="#FFFFFF" fill="#FFFFFF" transform="translate(29.000000, 3.000000) scale(-1, 1) translate(-29.000000, -3.000000) "></path>
                        </g>
                    </g>
                </g>
            </g>
        </g>
    </g>
</svg>