<svg id="Layer_1" data-name="Layer 1" xmlns="http://www.w3.org/2000/svg" viewBox="0 0 32 32"><title>page-footer__about-inst</title><path id="a" d="M20.67,16.6a4.83,4.83,0,0,1-9.66,0,4.57,4.57,0,0,1,.2-1.34L10,15v6.8a0.42,0.42,0,0,0,.49.49H21.17a0.42,0.42,0,0,0,.49-0.49V15l-1.19.26a4.58,4.58,0,0,1,.2,1.34h0Z" style="fill:#454545"/><path id="b" d="M13,16a3.12,3.12,0,0,1,6.24,0h0A3.12,3.12,0,0,1,13,16h0Z" style="fill:#454545"/><path id="c" d="M32,16A16,16,0,1,1,16,0,16,16,0,0,1,32,16Zm-8.23-5.83a1.9,1.9,0,0,0-1.86-1.94H10.17a1.9,1.9,0,0,0-1.94,1.86s0,0.05,0,.08V21.83a1.9,1.9,0,0,0,1.94,1.94H21.83a1.9,1.9,0,0,0,1.94-1.86s0-.05,0-0.08V10.17Z" style="fill:#454545"/><path id="d" d="M21.43,10H19.49a0.5,0.5,0,0,0-.49.49v1.94a0.49,0.49,0,0,0,.49.49h1.94a0.5,0.5,0,0,0,.49-0.49V10.49A0.5,0.5,0,0,0,21.43,10Z" style="fill:#454545"/></svg>