<svg id="Layer_1" data-name="Layer 1" xmlns="http://www.w3.org/2000/svg" viewBox="0 0 21.04 26.02"><title>passangers</title><path id="a" d="M6,11c0,2.42,1.88,6.84,4.95,6.84S15.9,13.47,15.9,11" transform="translate(-0.63 -0.63)" style="fill:#fff;fill-opacity:0;stroke:#bf0112;stroke-miterlimit:50;stroke-width:0.75px"/><path id="b" d="M13.81,20c0,1.09-1.3,2-2.91,2S8,21.09,8,20" transform="translate(-0.63 -0.63)" style="fill:#fff;fill-opacity:0;stroke:#bf0112;stroke-miterlimit:50;stroke-width:0.75px"/><path id="c" d="M6.14,11.19C3.52,6,5.56,1,10.79,1c1.81,0,3.49,1,3.49,2.87a3.9,3.9,0,0,1-2.64,3.57C10,7.86,5.47,6.48,6.14,11.19Z" transform="translate(-0.63 -0.63)" style="fill:#fff;fill-opacity:0;stroke:#bf0112;stroke-linejoin:round;stroke-width:0.75px"/><path id="d" d="M8,17v3.39" transform="translate(-0.63 -0.63)" style="fill:#fff;fill-opacity:0;stroke:#bf0112;stroke-linecap:round;stroke-miterlimit:50;stroke-width:0.75px"/><path id="e" d="M14,17v3.39" transform="translate(-0.63 -0.63)" style="fill:#fff;fill-opacity:0;stroke:#bf0112;stroke-linecap:round;stroke-miterlimit:50;stroke-width:0.75px"/><path id="f" d="M14,6.34c1.41,0.57,2.52,2.34,2.52,5.41C18.18,10,19.25,3.22,14.77,3" transform="translate(-0.63 -0.63)" style="fill:#fff;fill-opacity:0;stroke:#bf0112;stroke-miterlimit:50;stroke-width:0.75px"/><path id="g" d="M8.13,20l-3.48.91a4.37,4.37,0,0,0-3.17,3.53L1,26.23" transform="translate(-0.63 -0.63)" style="fill:#fff;fill-opacity:0;stroke:#bf0112;stroke-linecap:round;stroke-miterlimit:50;stroke-width:0.75px"/><path id="h" d="M14,20l3.64,0.94a4.4,4.4,0,0,1,3.17,3.54l0.48,1.79" transform="translate(-0.63 -0.63)" style="fill:#fff;fill-opacity:0;stroke:#bf0112;stroke-linecap:round;stroke-miterlimit:50;stroke-width:0.75px"/></svg>