<svg id="Layer_1" data-name="Layer 1" xmlns="http://www.w3.org/2000/svg" viewBox="0 0 17 17"><title>plane</title><g id="Page-1"><g id="LINK-1-OFFER"><g id="Group-4-Copy"><g id="Group-3"><g id="plane"><path id="Shape" d="M10.06,16.67L12.4,10.8l0.83,0.09a4.55,4.55,0,0,0,3.1-.81A2.08,2.08,0,0,0,17,8.5a2.08,2.08,0,0,0-.67-1.58,4.56,4.56,0,0,0-3.11-.81l-0.89.1L9.78,0.32A0.53,0.53,0,0,0,9.3,0H8a0.53,0.53,0,0,0-.53.53V6.76l-3.58.4L2.54,5.51a0.53,0.53,0,0,0-.41-0.2H1.59a0.53,0.53,0,0,0-.53.53V7.47A1.14,1.14,0,0,0,0,8.5a1.14,1.14,0,0,0,1.06,1v1.63a0.53,0.53,0,0,0,.53.53H2.13a0.53,0.53,0,0,0,.41-0.2L3.85,9.85l3.58,0.4v6.22A0.53,0.53,0,0,0,8,17H9.56A0.53,0.53,0,0,0,10.06,16.67ZM9.3,0.53l2.49,5.74L9,6.58v-6H9.3ZM8,6.7V0.53H8.5V6.64ZM1.59,5.84H2.13l1.1,1.38L1.59,7.4V5.84Zm0.53,5.31H1.59V9.6L3.23,9.78ZM1.32,9A0.77,0.77,0,0,1,.53,8.5,0.79,0.79,0,0,1,1.34,8L13.27,6.64a4.1,4.1,0,0,1,2.7.67,1.54,1.54,0,0,1,.5,1.18A1.54,1.54,0,0,1,16,9.68a4.08,4.08,0,0,1-2.68.67ZM8,16.47V10.3L8.5,10.36v6.11H8Zm1.06,0v-6l2.82,0.31L9.56,16.47H9Z" style="fill:#bf0112"/></g></g></g></g></g></svg>