<svg id="Layer_1" data-name="Layer 1" xmlns="http://www.w3.org/2000/svg" viewBox="0 0 17.88 26.01"><title>popular</title><path id="a" d="M14.63,15.83v9.36a0.82,0.82,0,0,1-1.3.65L8.94,22.55,4.55,25.84a0.87,0.87,0,0,1-.49.16,0.77,0.77,0,0,1-.36-0.09,0.78,0.78,0,0,1-.45-0.72V15.83a8.94,8.94,0,1,1,11.38,0h0ZM4.88,24.58V16.89a8.29,8.29,0,0,1-.82-0.47v8.77ZM12.19,24V17.26a8.82,8.82,0,0,1-6.5,0V24l3.25-2.44Zm1.62-7.55a8.12,8.12,0,0,1-.81.47v7.69l0.81,0.61V16.42Zm3.25-7.48a8.13,8.13,0,0,0-16.25,0A8.13,8.13,0,0,0,17.06,8.94Z" transform="translate(0 0.01)" style="fill:#bf0112"/><path id="b" d="M16.63,9.31A7.32,7.32,0,1,1,9.31,2,7.34,7.34,0,0,1,16.63,9.31Zm-0.82,0a6.5,6.5,0,1,0-6.5,6.51A6.51,6.51,0,0,0,15.81,9.31Z" transform="translate(0 0.01)" style="fill:#bf0112"/><path id="c" d="M12.48,8.45a0.4,0.4,0,0,1-.1.41l-1.27,1.31L11.41,12a0.42,0.42,0,0,1-.4.47,0.46,0.46,0,0,1-.2,0l-1.56-.87-1.56.87A0.41,0.41,0,0,1,7.09,12l0.3-1.86L6.12,8.86A0.4,0.4,0,0,1,6,8.45a0.39,0.39,0,0,1,.32-0.27L8.1,7.91,8.88,6.23a0.41,0.41,0,0,1,.74,0L10.4,7.91l1.75,0.27a0.4,0.4,0,0,1,.33.27h0Zm-1.23.41-1.18-.18a0.41,0.41,0,0,1-.31-0.23L9.25,7.36,8.74,8.45a0.41,0.41,0,0,1-.31.23l-1.18.18L8.12,9.75a0.4,0.4,0,0,1,.11.35L8,11.33l1-.57a0.5,0.5,0,0,1,.2,0,0.46,0.46,0,0,1,.2,0l1,0.57-0.2-1.23a0.4,0.4,0,0,1,.11-0.35Z" transform="translate(0 0.01)" style="fill:#bf0112"/></svg>