<svg id="Layer_1" data-name="Layer 1" xmlns="http://www.w3.org/2000/svg" xmlns:xlink="http://www.w3.org/1999/xlink" viewBox="0 0 65 65"><defs><filter id="filter-2" x="-14.8" y="-9.7" width="121.5" height="121.5" name="filter-2"><feOffset result="shadowOffsetOuter1" dy="2" in="SourceAlpha"/><feGaussianBlur result="shadowBlurOuter1" stdDeviation="2" in="shadowOffsetOuter1"/><feComposite result="shadowBlurOuter1" operator="out" in="shadowBlurOuter1" in2="SourceAlpha"/><feColorMatrix values="0 0 0 0 0 0 0 0 0 0 0 0 0 0 0 0 0 0 0.09 0" in="shadowBlurOuter1"/></filter></defs><title>tel-mobile</title><g id="Page-1"><g id="Menu"><g id="Group-4"><g id="Oval-2"><g style="filter:url(#filter-2)"><circle id="path-1" cx="32.5" cy="32.5" r="32.5"/></g><circle id="path-1-2" data-name="path-1" cx="32.5" cy="32.5" r="32.5" style="fill:#fff"/><circle cx="32.5" cy="32.5" r="32" style="fill:none;stroke:#ececec"/></g><g id="GRAND-VOYAGE-operator-icon-03"><path id="Shape" d="M40.61,38.67a6.64,6.64,0,0,0,1.73-2.15H43a2.06,2.06,0,0,0,2-2.05V28.35a6.72,6.72,0,0,0-6.74-6.69H35.57a6.72,6.72,0,0,0-6.74,6.69v5.57a0.36,0.36,0,0,0,.07.2A1.16,1.16,0,0,0,30,35h0.44A1.15,1.15,0,0,0,31,34.87a6.06,6.06,0,0,0,2.21,3.92,5.32,5.32,0,0,0-4.57,5v3.83a0.37,0.37,0,0,0,.75,0V43.8a4.61,4.61,0,0,1,4.34-4.35V43a0.38,0.38,0,0,0,.59.3l1-.69,1.33,1.22v3.76a0.38,0.38,0,1,0,.75,0v-3.8l1.33-1.22,1,0.69a0.38,0.38,0,0,0,.59-0.3V39.41A4.68,4.68,0,0,1,45,43.8v3.83a0.38,0.38,0,0,0,.75,0V43.8a5.39,5.39,0,0,0-5.14-5.13h0Zm3.68-4.9a0.42,0.42,0,0,1-.42.42H43.43A0.42,0.42,0,0,1,43,33.77V30.68a0.42,0.42,0,0,1,.42-0.42h0.44a0.42,0.42,0,0,1,.42.42v3.09Zm-2-4.84L40,26.64a0.38,0.38,0,0,0-.6.1c-1.44,2.93-4,4.05-7.72,3.44V28.39a3.65,3.65,0,0,1,3.64-3.64h3.34a3.65,3.65,0,0,1,3.64,3.64v0.54Zm-10.63,2a12.28,12.28,0,0,0,1.84.16,6.75,6.75,0,0,0,6.31-3.57L42.25,30v3.7a5.45,5.45,0,0,1-.41,2.08H38.15a0.38,0.38,0,0,0,0,.75h3.32a6.15,6.15,0,0,1-1.87,2l-0.28.17a4.88,4.88,0,0,1-2.33.73h-0.1a5.31,5.31,0,0,1-2.54-.73L34,38.43a5.49,5.49,0,0,1-2.38-4.73ZM43,35.77H42.67a6.26,6.26,0,0,0,.24-1,1.14,1.14,0,0,0,.53.14h0.44a1.14,1.14,0,0,0,.34-0.07,1.3,1.3,0,0,1-1.22.93h0ZM29.6,28.35a6,6,0,0,1,6-5.94h2.74a6,6,0,0,1,6,5.94V29.6a1.16,1.16,0,0,0-.42-0.09H43.48a1.16,1.16,0,0,0-.42.09V28.39A4.4,4.4,0,0,0,38.61,24H35.27a4.4,4.4,0,0,0-4.39,4.39v1.22a1.16,1.16,0,0,0-.42-0.09H30a1.16,1.16,0,0,0-.42.09Zm1.29,5.44a0.42,0.42,0,0,1-.42.42H30a0.42,0.42,0,0,1-.42-0.42V30.7A0.42,0.42,0,0,1,30,30.28h0.44a0.42,0.42,0,0,1,.42.42v3.09h0Zm3.56,5.75a6.1,6.1,0,0,0,2.13.57v0.58l-2.13,1.54V39.54Zm2.5,3.58-1.08-1,1.08-.78L38,42.12Zm2.5-.89-2.13-1.54V40.11a5.74,5.74,0,0,0,2.13-.66v2.78Z" transform="translate(-4 -2)" style="fill:#bf0112"/><path id="Shape-2" data-name="Shape" d="M41.75,44.52H39.42a0.38,0.38,0,1,0,0,.75h2.34a0.38,0.38,0,0,0,0-.75h0Z" transform="translate(-4 -2)" style="fill:#bf0112"/></g></g></g></g></svg>