<svg id="Layer_1" data-name="Layer 1" xmlns="http://www.w3.org/2000/svg" viewBox="0 0 16.49 26.12"><title>tel</title><path id="a" d="M15.66,1.83a2.79,2.79,0,0,1,.83,2V24.3a2.82,2.82,0,0,1-2.82,2.82H2.82A2.83,2.83,0,0,1,0,24.31V3.82a2.79,2.79,0,0,1,.83-2,2.8,2.8,0,0,1,2-.83H13.67A2.79,2.79,0,0,1,15.66,1.83ZM0.73,22.23h15V5h-15V22.23Zm0-18.45V4.23h15V3.82a2.07,2.07,0,0,0-2.07-2.07H2.82A2.07,2.07,0,0,0,.74,3.78Zm14.4,22a2.06,2.06,0,0,0,.61-1.46V23h-15V24.3a2.07,2.07,0,0,0,2.07,2.07H13.67a2.07,2.07,0,0,0,1.47-.6h0Z" transform="translate(0 -1)" style="fill:#bf0112"/></svg>