<?xml version="1.0" encoding="UTF-8"?>
<svg width="25px" height="25px" viewBox="0 0 25 25" version="1.1" xmlns="http://www.w3.org/2000/svg" xmlns:xlink="http://www.w3.org/1999/xlink">
    <!-- Generator: Sketch 47 (45396) - http://www.bohemiancoding.com/sketch -->
    <title>GRAND VOYAGE clock-03</title>
    <desc>Created with Sketch.</desc>
    <defs></defs>
    <g id="Page-1" stroke="none" stroke-width="1" fill="none" fill-rule="evenodd">
        <g id="LINK-1-OFFER-(-more-cities-)" transform="translate(-21.000000, -1882.000000)" fill-rule="nonzero" fill="#BF0112">
            <g id="Group-25-Copy-2" transform="translate(0.000000, 1863.000000)">
                <g id="Group-24">
                    <g id="GRAND-VOYAGE-clock-03" transform="translate(21.000000, 19.000000)">
                        <path d="M12.3663636,24.5509091 C7.4036423,24.5556901 2.92692372,21.5698983 1.02445873,16.9863131 C-0.878006251,12.402728 0.168610395,7.124418 3.67609436,3.6135517 C7.18357832,0.102685403 12.460877,-0.949018284 17.0462938,0.949027904 C21.6317105,2.84707409 24.6218159,7.32091272 24.6218182,12.2836364 C24.615317,19.0513572 19.1340751,24.5378848 12.3663636,24.5509091 L12.3663636,24.5509091 Z M12.3663636,0.914545455 C7.76214314,0.90976433 3.60862501,3.67960043 1.84335223,7.93197403 C0.0780794501,12.1843476 1.04886243,17.0814167 4.30284802,20.3387848 C7.55683361,23.5961529 12.4528914,24.5720232 16.7070968,22.8111694 C20.9613021,21.0503157 23.7354521,16.8996775 23.7354545,12.2954545 C23.7289554,6.01725784 18.6445502,0.927567402 12.3663636,0.914545455 Z" id="Shape"></path>
                        <path d="M17.4009091,12.7327273 L12.2954545,12.7327273 C12.0565741,12.7265195 11.8643896,12.534335 11.8581818,12.2954545 L11.8581818,3.45545455 C11.893753,3.23834914 12.0813635,3.07897576 12.3013636,3.07897576 C12.5213638,3.07897576 12.7089743,3.23834914 12.7445455,3.45545455 L12.7445455,11.8463636 L17.4127273,11.8463636 C17.6298327,11.8819348 17.7892061,12.0695453 17.7892061,12.2895455 C17.7892061,12.5095456 17.6298327,12.6971561 17.4127273,12.7327273 L17.4009091,12.7327273 Z" id="Shape"></path>
                        <path d="M3.99909091,12.6854545 L2.66363636,12.6854545 C2.44653096,12.6498834 2.28715758,12.4622729 2.28715758,12.2422727 C2.28715758,12.0222726 2.44653096,11.8346621 2.66363636,11.7990909 L3.99909091,11.7990909 C4.21619631,11.8346621 4.37556969,12.0222726 4.37556969,12.2422727 C4.37556969,12.4622729 4.21619631,12.6498834 3.99909091,12.6854545 L3.99909091,12.6854545 Z" id="Shape"></path>
                        <path d="M21.7263636,12.6854545 L20.3909091,12.6854545 C20.1461465,12.6854545 19.9477273,12.4870353 19.9477273,12.2422727 C19.9477273,11.9975102 20.1461465,11.7990909 20.3909091,11.7990909 L21.7263636,11.7990909 C21.943469,11.8346621 22.1028424,12.0222726 22.1028424,12.2422727 C22.1028424,12.4622729 21.943469,12.6498834 21.7263636,12.6854545 L21.7263636,12.6854545 Z" id="Shape"></path>
                        <path d="M12.2009091,22.2227273 C11.9620286,22.2165195 11.7698442,22.024335 11.7636364,21.7854545 L11.7636364,20.45 C11.7636364,20.2052374 11.9620556,20.0068182 12.2068182,20.0068182 C12.4515807,20.0068182 12.65,20.2052374 12.65,20.45 L12.65,21.7854545 C12.6435926,22.0288534 12.4443922,22.2228116 12.2009091,22.2227273 Z" id="Shape"></path>
                    </g>
                </g>
            </g>
        </g>
    </g>
</svg>