<svg id="Layer_1" data-name="Layer 1" xmlns="http://www.w3.org/2000/svg" viewBox="0 0 13.4 13.4"><title>time</title><g id="Page-1"><g id="LINK-1-OFFER"><g id="Group-4-Copy"><g id="Group-3"><g id="Group-2"><g id="Group"><path id="Shape" d="M6.7,13.4A6.7,6.7,0,1,0,0,6.7a6.7,6.7,0,0,0,6.7,6.7h0Zm0-12.6A5.89,5.89,0,1,1,.81,6.69,5.89,5.89,0,0,1,6.7.8h0Z" style="fill:#bf0112"/><path id="Shape-2" data-name="Shape" d="M6.7,7.31h3.76a0.41,0.41,0,0,0,0-.81H7.1V3.68a0.41,0.41,0,0,0-.81,0V6.91a0.41,0.41,0,0,0,.41.4h0Z" style="fill:#bf0112"/></g></g></g></g></g></g></svg>