<svg id="Layer_1" data-name="Layer 1" xmlns="http://www.w3.org/2000/svg" viewBox="0 0 27 27"><title>trend</title><path id="a" d="M27,18.14h0a2,2,0,0,1,0,.42v3.38A5.07,5.07,0,0,1,21.94,27H19.41a5.07,5.07,0,0,1-5.07-5.06V18.56A2.6,2.6,0,0,1,14.41,18a1.62,1.62,0,0,0-1.82,0,2.6,2.6,0,0,1,.07.56v3.38A5.07,5.07,0,0,1,7.59,27H5.06A5.07,5.07,0,0,1,0,21.94V18.56a2,2,0,0,1,0-.42H0V1.69A1.69,1.69,0,0,1,1.69,0H3.38a1.27,1.27,0,0,1,0,2.53H2.53V16h7.6a2.4,2.4,0,0,1,.71.11,4.21,4.21,0,0,1,5.32,0A2.41,2.41,0,0,1,16.88,16h7.59V2.53H23.63a1.27,1.27,0,1,1,0-2.53h1.68A1.69,1.69,0,0,1,27,1.69V18.14ZM0.84,16.68a2.51,2.51,0,0,1,.85-0.5V2.11a0.42,0.42,0,0,1,.42-0.42H3.38a0.42,0.42,0,1,0,0-.85H1.69a0.85,0.85,0,0,0-.85.85v15Zm11,1.88a1.68,1.68,0,0,0-1.68-1.68H2.53A1.69,1.69,0,0,0,.84,18.56v3.38a4.22,4.22,0,0,0,4.22,4.22H7.59a4.22,4.22,0,0,0,4.22-4.22V18.56Zm3.51-2a3.33,3.33,0,0,0-3.64,0,2.67,2.67,0,0,1,.58.63,2.6,2.6,0,0,1,2.48,0A2.67,2.67,0,0,1,15.32,16.57Zm10.84,2a1.69,1.69,0,0,0-1.69-1.68H16.88a1.68,1.68,0,0,0-1.69,1.68v3.38a4.22,4.22,0,0,0,4.22,4.22h2.53a4.22,4.22,0,0,0,4.22-4.22V18.56Zm0-16.87A0.85,0.85,0,0,0,25.31.84H23.63a0.42,0.42,0,0,0,0,.85h1.26a0.42,0.42,0,0,1,.42.42V16.18a2.51,2.51,0,0,1,.85.5v-15Z" transform="translate(0)" style="fill:#bf0112"/><path id="b" d="M25.38,22a0.42,0.42,0,0,0-.43.41h0a2.53,2.53,0,0,1-2.53,2.53,0.42,0.42,0,0,0,0,.85,3.38,3.38,0,0,0,3.38-3.38h0A0.42,0.42,0,0,0,25.38,22h0Z" transform="translate(0)" style="fill:#bf0112"/><path id="c" d="M10.38,22a0.42,0.42,0,0,0-.43.41h0a2.53,2.53,0,0,1-2.53,2.53,0.42,0.42,0,1,0,0,.85,3.38,3.38,0,0,0,3.38-3.38h0A0.42,0.42,0,0,0,10.38,22h0Z" transform="translate(0)" style="fill:#bf0112"/></svg>