<svg id="Layer_1" data-name="Layer 1" xmlns="http://www.w3.org/2000/svg" viewBox="0 0 20.78 20.78"><title>watches</title><path id="a" d="M1.79,15.36A10.39,10.39,0,1,1,15.36,21,10.39,10.39,0,0,1,1.79,15.36h0Zm9.6-13.6A9.62,9.62,0,1,0,21,11.34,9.62,9.62,0,0,0,11.39,1.76Z" transform="translate(-1 -1)" style="fill:#bf0112"/><path id="b" d="M15.69,11.17H11.37A0.39,0.39,0,0,1,11,10.8V3.32A0.38,0.38,0,0,1,11.38,3a0.37,0.37,0,0,1,.37.32v7.1h4a0.38,0.38,0,0,1,0,.75h0Z" transform="translate(-1 -1)" style="fill:#bf0112"/><path id="c" d="M4.45,11.75H3.32a0.38,0.38,0,0,1,0-.75H4.45A0.38,0.38,0,0,1,4.45,11.75Z" transform="translate(-1 -1)" style="fill:#bf0112"/><path id="d" d="M19.51,11.75H18.38a0.38,0.38,0,1,1,0-.75h1.13A0.38,0.38,0,0,1,19.51,11.75Z" transform="translate(-1 -1)" style="fill:#bf0112"/><path id="e" d="M11.37,19.88A0.39,0.39,0,0,1,11,19.51V18.38a0.38,0.38,0,1,1,.75,0v1.13A0.38,0.38,0,0,1,11.37,19.88Z" transform="translate(-1 -1)" style="fill:#bf0112"/></svg>